<?xml version="1.0" encoding="utf-8"?>
<!-- Generator: Adobe Illustrator 18.1.1, SVG Export Plug-In . SVG Version: 6.00 Build 0)  -->
<svg version="1.1" id="Layer_1" xmlns="http://www.w3.org/2000/svg" xmlns:xlink="http://www.w3.org/1999/xlink" x="0px" y="0px"
	 viewBox="0 0 32.044 32.004" enable-background="new 0 0 32.044 32.004" xml:space="preserve">
<path fill="currentColor" d="M27.898,10.482l-0.005-8.305c0-1.146,0.928-2.075,2.073-2.075
	c1.145,0,2.073,0.929,2.073,2.074l0.004,8.306c0,1.146-0.928,2.075-2.073,2.075C28.826,12.557,27.898,11.628,27.898,10.482z"/>
<path fill="currentColor" d="M21.498,0l8.374,0.023c1.155,0.004,2.095,0.928,2.098,2.063
	c0.004,1.136-0.929,2.053-2.084,2.049l-8.374-0.023c-1.155-0.004-2.095-0.928-2.099-2.063C19.41,0.914,20.343-0.004,21.498,0z"/>
<path fill="currentColor" d="M31.392,0.704c0.786,0.781,0.786,2.047,0,2.828L21.43,13.43
	c-0.786,0.781-2.061,0.781-2.847,0c-0.786-0.781-0.786-2.047,0-2.828l9.963-9.899C29.332-0.077,30.606-0.077,31.392,0.704z"/>
<path fill="currentColor" d="M13.411,18.592c0.782,0.784,0.782,2.056,0,2.841l-9.918,9.943
	c-0.783,0.785-2.051,0.785-2.833,0c-0.783-0.785-0.783-2.056,0-2.841l9.918-9.943C11.36,17.807,12.628,17.807,13.411,18.592z"/>
<path fill="currentColor" d="M4.171,21.474l-0.038,8.353c-0.006,1.152-0.936,2.091-2.077,2.097
	C0.914,31.93-0.006,31.001,0,29.849l0.038-8.353c0.006-1.152,0.936-2.091,2.077-2.097C3.257,19.392,4.177,20.321,4.171,21.474z"/>
<path fill="currentColor" d="M10.495,31.983L2.15,32.004c-1.151,0.002-2.083-0.922-2.081-2.064
	c0.002-1.142,0.937-2.07,2.088-2.072l8.346-0.02c1.151-0.002,2.083,0.922,2.081,2.064C12.582,31.054,11.647,31.981,10.495,31.983z"
	/>
</svg>
