<?xml version="1.0" encoding="utf-8"?>
<!-- Generator: Adobe Illustrator 18.1.1, SVG Export Plug-In . SVG Version: 6.00 Build 0)  -->
<svg version="1.1" id="Layer_1" xmlns="http://www.w3.org/2000/svg" xmlns:xlink="http://www.w3.org/1999/xlink" x="0px" y="0px"
	 viewBox="0 0 24 24" enable-background="new 0 0 24 24" xml:space="preserve">
	 <title>Facebook</title>
<path fill="currentColor" d="M3.75,0h16.5C22.321,0,24,1.679,24,3.75v16.5c0,2.071-1.679,3.75-3.75,3.75H3.75
	C1.679,24,0,22.321,0,20.25V3.75C0,1.679,1.679,0,3.75,0z"/>
<path fill="#FFFFFF" d="M10.473,19.125h2.668v-6.491h2.164l0.326-2.544h-2.49V8.337
	c0,0-0.03-0.432,0.177-0.721c0.177-0.248,0.527-0.36,1.217-0.36c0.578,0,1.215,0,1.215,0v-2.28c0,0-1.779-0.249-2.994,0.029
	c-1.215,0.278-2.283,1.374-2.283,2.778c0,1.403,0,2.31,0,2.31H8.25v2.544h2.223V19.125z"/>
</svg>
