<?xml version="1.0" encoding="utf-8"?>
<!-- Generator: Adobe Illustrator 18.1.1, SVG Export Plug-In . SVG Version: 6.00 Build 0)  -->
<svg version="1.1" id="Layer_1" xmlns="http://www.w3.org/2000/svg" xmlns:xlink="http://www.w3.org/1999/xlink" x="0px" y="0px"
	 viewBox="0 0 24 24" enable-background="new 0 0 24 24" xml:space="preserve">
	 <title>Instagram</title>
<path fill="currentColor" d="M3.75,0h16.5C22.321,0,24,1.679,24,3.75v16.5c0,2.071-1.679,3.75-3.75,3.75H3.75
	C1.679,24,0,22.321,0,20.25V3.75C0,1.679,1.679,0,3.75,0z"/>
<path fill="#FFFFFF" d="M5.25,7.207c0-1.192,0.358-1.957,2.216-1.957s8.172,0,9.403,0
	c1.231,0,1.881,0.585,1.881,1.89c0,1.305,0,8.617,0,9.855c0,1.238-0.873,1.755-1.746,1.755c-0.873,0-8.933,0-10.142,0
	S5.25,17.58,5.25,16.928C5.25,16.275,5.25,8.4,5.25,7.207z"/>
<path fill="currentColor" d="M14.451,7.612c0-0.607,0.269-0.877,0.739-0.877c0.47,0,1.007,0,1.41,0
	s0.604,0.338,0.604,0.608c0,0.27,0,1.238,0,1.553c0,0.315-0.224,0.54-0.537,0.54c-0.313,0-1.209,0-1.612,0s-0.604-0.225-0.604-0.608
	C14.451,8.445,14.451,8.22,14.451,7.612z"/>
<path fill="currentColor" d="M15.996,10.988h1.209c0,0,0,4.838,0,5.535c0,0.698-0.201,0.675-0.672,0.675
	c-0.47,0-8.261,0-8.933,0c-0.672,0-0.806-0.428-0.806-0.81c0-0.382,0-5.4,0-5.4h1.209c0,0-0.532,1.766,0.403,3.307
	c0.565,0.932,1.729,1.958,3.694,1.958C14.071,16.253,16.892,14.52,15.996,10.988z"/>
<path fill="currentColor" d="M12.033,9.3c1.484,0,2.687,1.209,2.687,2.7c0,1.491-1.203,2.7-2.687,2.7
	c-1.484,0-2.686-1.209-2.686-2.7C9.347,10.509,10.55,9.3,12.033,9.3z"/>
</svg>
