<?xml version="1.0" encoding="utf-8"?>
<!-- Generator: Adobe Illustrator 18.0.0, SVG Export Plug-In . SVG Version: 6.00 Build 0)  -->
<!DOCTYPE svg PUBLIC "-//W3C//DTD SVG 1.1//EN" "http://www.w3.org/Graphics/SVG/1.1/DTD/svg11.dtd">
<svg version="1.1" id="Layer_1" xmlns="http://www.w3.org/2000/svg" xmlns:xlink="http://www.w3.org/1999/xlink" x="0px" y="0px"
	 viewBox="0 0 32 32" enable-background="new 0 0 32 32" xml:space="preserve">
<g>
	<path fill="currentColor" d="M7.7,22.7c-0.8,0-1.5,0.3-2,0.8c-0.6,0.6-0.8,1.2-0.8,2c0,0.8,0.3,1.5,0.8,2c0.6,0.6,1.2,0.8,2,0.8c0.8,0,1.5-0.3,2-0.8
		c0.6-0.6,0.8-1.2,0.8-2c0-0.8-0.3-1.5-0.8-2C9.1,23,8.5,22.7,7.7,22.7z"/>
	<path fill="currentColor" d="M7,16.6c0-0.9-0.3-1.6-0.9-2.3c-0.6-0.6-1.4-0.9-2.3-0.9c-0.9,0-1.6,0.3-2.3,0.9C1,15,0.6,15.8,0.6,16.6
		c0,0.9,0.3,1.6,0.9,2.3c0.6,0.6,1.4,0.9,2.3,0.9c0.9,0,1.6-0.3,2.3-0.9C6.7,18.3,7,17.5,7,16.6z"/>
	<path fill="currentColor" d="M25.6,9.3c0.4,0,0.8-0.2,1.1-0.5c0.3-0.3,0.5-0.7,0.5-1.1c0-0.4-0.2-0.8-0.5-1.1c-0.3-0.3-0.7-0.5-1.1-0.5
		c-0.4,0-0.8,0.2-1.1,0.5C24.2,6.9,24,7.2,24,7.7s0.2,0.8,0.5,1.1C24.8,9.1,25.2,9.3,25.6,9.3z"/>
	<path fill="currentColor" d="M7.7,4.2c-1,0-1.8,0.3-2.5,1c-0.7,0.7-1,1.5-1,2.5c0,1,0.3,1.8,1,2.5c0.7,0.7,1.5,1,2.5,1s1.8-0.3,2.5-1
		c0.7-0.7,1-1.5,1-2.5c0-1-0.3-1.8-1-2.5C9.5,4.5,8.7,4.2,7.7,4.2z"/>
	<path fill="currentColor" d="M30.8,15.3c-0.4-0.4-0.8-0.6-1.4-0.6c-0.5,0-1,0.2-1.4,0.6c-0.4,0.4-0.6,0.8-0.6,1.4c0,0.5,0.2,1,0.6,1.4
		c0.4,0.4,0.8,0.6,1.4,0.6c0.5,0,1-0.2,1.4-0.6c0.4-0.4,0.6-0.8,0.6-1.4C31.4,16.1,31.2,15.7,30.8,15.3z"/>
	<path fill="currentColor" d="M25.6,23.4c-0.6,0-1.1,0.2-1.6,0.7c-0.4,0.4-0.7,1-0.7,1.6c0,0.6,0.2,1.1,0.7,1.6c0.4,0.4,1,0.7,1.6,0.7
		c0.6,0,1.1-0.2,1.6-0.7c0.4-0.4,0.7-1,0.7-1.6c0-0.6-0.2-1.1-0.7-1.6C26.7,23.6,26.2,23.4,25.6,23.4z"/>
	<path fill="currentColor" d="M16.6,26.9c-0.7,0-1.3,0.3-1.8,0.8c-0.5,0.5-0.7,1.1-0.7,1.8s0.2,1.3,0.7,1.8c0.5,0.5,1.1,0.8,1.8,0.8
		c0.7,0,1.3-0.3,1.8-0.8c0.5-0.5,0.8-1.1,0.8-1.8s-0.3-1.3-0.8-1.8S17.3,26.9,16.6,26.9z"/>
	<path fill="currentColor" d="M16.6,0c-1.1,0-2,0.4-2.7,1.1c-0.7,0.7-1.1,1.7-1.1,2.7c0,1.1,0.4,2,1.1,2.7c0.7,0.7,1.7,1.1,2.7,1.1c1.1,0,2-0.4,2.7-1.1
		c0.7-0.7,1.1-1.7,1.1-2.7c0-1.1-0.4-2-1.1-2.7C18.6,0.4,17.7,0,16.6,0z"/>
</g>
</svg>
