<?xml version="1.0" encoding="utf-8"?>
<!-- Generator: Adobe Illustrator 18.0.0, SVG Export Plug-In . SVG Version: 6.00 Build 0)  -->
<!DOCTYPE svg PUBLIC "-//W3C//DTD SVG 1.1//EN" "http://www.w3.org/Graphics/SVG/1.1/DTD/svg11.dtd">
<svg version="1.1" xmlns="http://www.w3.org/2000/svg" xmlns:xlink="http://www.w3.org/1999/xlink" x="0px" y="0px"
	 viewBox="0 0 180 145" enable-background="new 0 0 180 145" xml:space="preserve">
	<title>Nikol Klapková logo</title>
<g>
	<path fill="#fba07c" d="M158.7067,88.7915c-0.387-4.8557-1.1596-9.8545-2.3597-15.2727c0.3332-0.1563,0.4932-0.3937,0.4261-0.6554
		c-0.7482-2.9273-1.6955-5.859-2.8057-8.6846c-0.4438-1.5554-0.9303-3.1839-1.4456-4.8381l-0.0405-0.0914
		c-4.0559-19.7039-17.4194-37.6341-37.6348-50.4911c-8.4627-5.3821-17.0523-8.1104-25.5312-8.1104
		c-1.2348,0-2.4835,0.059-3.7124,0.1754C74.1589,1.9069,63.8002,7.3628,56.0555,11.9944
		c-8.9367,5.3452-18.2612,11.2175-25.4184,19.036c-3.0733,3.3571-5.6298,7.1793-7.8,11.6539
		c-3.4551,5.4838-5.96,11.4535-7.4447,17.7445c-1.1411,4.8366-1.6468,9.856-1.4994,14.8666
		c-1.2834,9.4542-0.9989,17.6022,0.8699,24.9105c2.4511,9.5832,7.6659,18.6799,15.0818,26.3074
		c11.0251,11.337,26.5183,17.8388,42.5068,17.8388c2.23,0,4.4864-0.1253,6.6508-0.3715c0.847,0.056,1.7066,0.0951,2.555,0.1157
		c0.5315,0.0133,1.063,0.0199,1.593,0.0199c14.9565,0,29.9904-5.2391,42.2694-14.714l0.3642-0.1651
		c8.9677-4.0839,19.0854-9.2589,26.1327-16.6719C158.9787,105.1368,159.3119,96.3792,158.7067,88.7915z M128.9846,126.4853
		c1.2289-1.077,2.4209-2.1968,3.5627-3.3453c14.2149-14.3019,21.8498-33.3563,21.235-52.7211
		c1.3343,5.4241,2.2742,10.5039,2.8617,15.4445c0.9974,8.4045,1.1596,17.154-4.3692,24.2095
		C146.6229,117.2884,137.7894,122.1817,128.9846,126.4853z M15.8486,96.9793c-0.774-3.9335-1.1072-8.0425-1.0092-12.4833
		c2.0552,11.5353,7.2752,22.7764,15.2108,32.6951c11.2043,14.0033,26.0951,23.1317,42.2392,25.9772
		c-0.098,0-0.1961,0.0007-0.2934,0.0007c-7.256,0-14.3255-1.3785-21.0123-4.0972C33.2533,131.8615,19.4615,115.3393,15.8486,96.9793
		z M17.5442,88.9212c-1.1854-4.5432-1.8267-9.239-1.9071-13.9561c0.505-3.646,1.2473-7.5604,2.3184-12.2186
		c-1.0284,10.8895,0.774,22.6688,5.1897,33.245c7.6555,18.3335,24.194,32.8727,44.2391,38.8925
		c6.6257,1.9896,13.6178,2.9988,20.7816,2.9988c3.2664,0,6.6043-0.2108,9.9511-0.6281c-6.1355,2.827-12.4766,4.6626-18.8311,5.4602
		c-10.7133-0.7652-21.0838-4.2527-29.9889-10.0845C33.7015,122.4176,22.1279,106.4858,17.5442,88.9212z M89.1029,136.8116
		c-17.9627,0.0007-35.6762-6.8881-48.598-18.8996c-13.1615-12.2334-20.8317-29.8806-21.0433-48.4152
		c-0.1032-9.0547,1.6572-17.6899,5.0902-24.9725c3.6932-7.8339,9.9437-14.6417,19.1097-20.8111
		c8.1148-5.0614,17.6118-8.577,27.4294-10.1634c0.7143-0.0369,1.4375-0.0553,2.1503-0.0553c2.8941,0,5.8229,0.3089,8.7053,0.9178
		c9.5795,2.0243,19.4768,6.3198,28.6214,12.4213c17.802,11.8781,29.1095,29.3771,31.0231,48.0091
		c2.4482,23.8306-16.3947,43.1725-27.8444,52.581c-3.9689,3.2605-8.2446,6.0876-12.7096,8.4023
		c-2.5115,0.4062-5.0378,0.6915-7.5096,0.8463C92.0649,136.7645,90.5765,136.8109,89.1029,136.8116z M105,135.0844
		c11.578-6.8336,22.3599-17.4267,30.5196-30.022c6.0441-9.3275,8.706-19.21,7.9121-29.3726
		c-0.8256-10.5799-4.7607-21.1259-11.3797-30.4961c-6.235-8.8262-14.9815-16.6026-25.2953-22.4889
		c-9.5921-5.4735-18.7551-8.838-27.2945-10.03c1.1419-0.0538,2.2793-0.0811,3.4057-0.0811c3.0777,0,6.1288,0.2035,9.0709,0.6045
		c21.65,2.9553,40.5584,19.7075,51.0337,34.4001c3.2981,4.625,6.0802,9.5316,8.2689,14.5835
		c1.8297,11.6281,0.6553,23.5563-3.3947,34.4967c-4.6014,12.4287-12.9499,23.7922-23.5091,32.0021
		C117.8592,131.5814,111.3633,133.7317,105,135.0844z M117.9167,21.9079c-10.6182-6.712-21.4827-10.1995-32.2926-10.3646
		c-0.3914-0.0059-0.7851-0.0096-1.1772-0.0096c-3.4286,0-6.9368,0.2307-10.3786,0.6811c-0.3163-0.0074-0.6318-0.011-0.9466-0.011
		c-8.2829,0-17.0066,2.6575-25.9278,7.8995c-3.837,2.2543-7.1476,4.5093-10.117,6.8911c-1.4316,1.1212-2.8108,2.2992-4.1326,3.5288
		c6.8572-7.1859,15.6391-12.7118,24.0885-17.7666C65.5753,7.6443,76.9454,1.7765,89.1405,1.7765
		c0.8426,0,1.6925,0.028,2.5248,0.0833c9.5117,0.6325,19.2674,5.0953,29.8238,13.6414
		c9.9437,8.0506,17.1009,15.9775,21.8815,24.2338c2.7732,4.7902,4.9154,9.9739,6.3846,15.4423
		C142.5641,42.0231,131.6045,30.5601,117.9167,21.9079z M86.8611,142.5888c5.1919-1.279,10.3624-3.2804,15.3678-5.949
		c6.061-1.0578,12.1847-2.7887,18.2413-5.155c-4.1709,2.8138-8.5939,5.1462-13.1821,6.9501
		c-6.9058,2.7143-14.1397,4.1967-21.532,4.4149C86.1262,142.7658,86.4948,142.6788,86.8611,142.5888z"/>
	<path d="M17.2137,71.5624c0.3273-1.234,0.9443-2.3446,1.8503-3.3317l3.332-4.0721c0.1637-0.1644,0.2661-0.3281,0.3088-0.4939
		c0.0406-0.1637,0.1018-0.3281,0.1851-0.4931c0.0811-0.2473,0.5337-0.9049,1.3571-1.9749c0.822-1.0682,1.7066-2.2407,2.6531-3.5171
		c0.945-1.2742,1.851-2.4868,2.715-3.6402c0.864-1.1507,1.4191-1.9317,1.6661-2.3442c0.0803-0.1644,0.2661-0.432,0.555-0.8024
		c0.2868-0.3701,0.617-0.7593,0.9871-1.1721c0.3701-0.4109,0.7409-0.8023,1.1109-1.1724c0.3701-0.3697,0.6362-0.6358,0.8013-0.8017
		l2.4689-2.2218l2.8381-1.9742c0.3281-0.2465,0.8639-0.5127,1.6041-0.8021c0.7401-0.2872,1.6446-0.4931,2.7143-0.617
		c1.0689-0.1234,2.283-0.0405,3.6409,0.247c1.3571,0.2893,2.7762,0.9255,4.2571,1.9126c1.8909,1.7276,3.1463,3.5995,3.764,5.6143
		c0.6163,2.0169,1.0063,3.5594,1.1714,4.6279c0.1644,0.8231,0.2049,1.6041,0.1239,2.3446c-0.0826,0.7405-0.2064,1.523-0.3701,2.3442
		l-0.4939,2.2214c-0.3295,1.1533-0.6995,2.325-1.1102,3.5171c-0.4129,1.1935-0.8234,2.366-1.234,3.5167
		c-0.4128,1.234-0.8235,2.4677-1.234,3.7021c-0.4128,1.2341-0.7829,2.4677-1.1109,3.7021c-0.1659,0.9871-0.3701,1.9745-0.617,2.9616
		c-0.2469,0.9871-0.4526,1.9746-0.6163,2.9616c-0.0833,0.4931-0.1858,1.0291-0.3089,1.6037
		c-0.123,0.5768-0.0574,1.4539,0.0927,3.0118c0.0488,0.5065,0.2966,1.3478,0.4625,1.9243c0.0811,0.4109,0.4106,0.6169,0.9871,0.6169
		c0.4939-0.2465,1.3539-0.6516,1.601-0.9797l2.3481-2.2285c0.74-0.6576,1.3976-1.3151,1.9741-1.9745
		c0.575-0.6576,1.1507-1.398,1.7279-2.2215c0.6575-0.9041,1.296-1.8083,1.9122-2.7143c0.617-0.9049,1.1729-1.809,1.666-2.715
		l3.332-6.1702c0.2469-0.4106,0.9687-1.7917,1.6343-2.5602c1.2259-1.4164,0.8448,0.9285,1.0107,0.516
		c0.1637-0.4106,1.0865-0.6797,1.4566-0.516c0.3701,0.1659,0.1504,1.4077-0.014,1.8182c-0.247,0.4935-0.3929,0.9966-0.8448,2.1474
		c-0.4527,1.1533-2.4408-0.15-3.0578,1.1246c-0.617,1.2764-1.2554,2.5296-1.913,3.7636c-0.659,1.2337-1.2333,2.2211-1.7272,2.9617
		l-0.7401,0.8635c-0.4135,0.6594-1.0092,1.4618-1.7899,2.4065c-0.7821,0.9469-1.6255,1.9122-2.5292,2.8996
		c-0.9067,0.9871-1.8319,1.9322-2.777,2.8382c-0.9465,0.9041-1.708,1.6045-2.283,2.0976c-0.4932,0.4109-1.0077,0.6576-1.5421,0.7404
		c-0.5359,0.0812-1.0918,0.1235-1.6661,0.1235c-1.1529-0.1658-2.8885-0.9648-3.7097-1.7864
		c-0.2463-0.1658-1.5153-1.8748-1.8434-2.5324c-0.3295-0.6597-0.617-1.3766-0.8633-2.1595
		c-0.2469-0.7811-0.3302-1.6233-0.2469-2.5296c0.0811-1.3984,0.2042-2.7555,0.3701-4.0721
		c0.1636-1.3151,0.4511-2.5915,0.8639-3.8256c0.2463-0.9041,0.4718-1.7471,0.6783-2.5296c0.2049-0.781,0.4726-1.6236,0.8028-2.5296
		c0.2462-1.0686,0.5337-2.0155,0.8632-2.8381l2.2218-6.2936c0.2462-0.5746,0.4504-1.1301,0.6163-1.666
		c0.1644-0.5341,0.328-1.1297,0.4939-1.7892c0.1636-0.3276,0.2868-0.6169,0.37-0.8635c0.0811-0.2469,0.2049-0.5746,0.3708-0.9874
		c0.0804-0.4106,0.1637-0.8831,0.2463-1.4191c0.0811-0.5341,0.1231-1.0895,0.1231-1.6656c0.1644-0.9871,0.2875-1.9937,0.3701-3.0235
		c0.0818-1.0276-0.1651-2.0357-0.7394-3.0231c-0.2477-0.5746-0.6797-0.9871-1.2959-1.2344c-0.617-0.2466-1.2554-0.4932-1.913-0.7398
		c-1.0703-0.5746-2.2638-0.6366-3.5782-0.1854c-1.3173,0.453-2.572,1.0914-3.764,1.9126c-1.1935,0.8234-2.2019,1.6255-3.0231,2.4061
		c-0.8234,0.7833-1.3166,1.2554-1.481,1.4191c-0.1658,0.1658-0.4526,0.5366-0.8639,1.1105c-0.4129,0.5769-0.864,1.2152-1.3572,1.913
		c-0.4939,0.6996-0.9679,1.3571-1.4191,1.9745c-0.4526,0.6167-0.802,1.0487-1.049,1.2957c-0.1652,0.1662-0.432,0.4935-0.802,0.9874
		c-0.3701,0.4931-0.7829,1.0486-1.234,1.6656c-0.4526,0.6174-0.8847,1.1935-1.296,1.728c-0.4121,0.5355-0.6995,0.9251-0.8632,1.1717
		c-0.4939,0.6598-0.9473,1.3173-1.3572,1.9745c-0.4128,0.6598-0.8639,1.3173-1.3578,1.9742
		c-0.5765,0.6598-1.1315,1.3578-1.6661,2.0984c-0.5359,0.7401-1.091,1.44-1.666,2.0976c-0.4121,0.4124-0.7402,0.8849-0.9871,1.419
		c-0.2463,0.5359-0.536,1.0486-0.864,1.5425c-0.4121,0.9871-0.8633,1.7696-1.3572,2.3442c-0.4121,0.6598-0.844,1.296-1.2952,1.9129
		c-0.4534,0.6167-0.8447,1.2551-1.1728,1.9126c-0.247,0.3296-0.5551,0.8235-0.9252,1.481c-0.3708,0.6594-0.7408,1.3571-1.111,2.0976
		c-0.37,0.7401-0.7209,1.4194-1.049,2.036c-0.3296,0.617-0.536,1.0914-0.617,1.419c-0.3295,0.9042-0.6591,1.8083-0.9871,2.7147
		c-0.3296,0.9045-0.5765,1.8916-0.7401,2.9615c0,0.0812-0.0214,0.1431-0.0619,0.1854c-0.0428,0.0406-0.062,0.1427-0.062,0.3085
		c-0.4128,0.9046-0.6782,1.8699-0.802,2.8997c-0.123,1.0277-0.227,2.0766-0.3082,3.147c0,0.6576-0.3295,1.1105-0.9878,1.3571
		c-0.5757,0.411-1.2141,0.617-1.9122,0.617c-0.7003,0-1.3785,0-2.036,0c-0.3296,0-0.6384-0.0214-0.9252-0.0619
		c-0.2897-0.0424-0.5979-0.1441-0.9259-0.3085c-0.659-0.0829-1.0291-0.4124-1.111-0.9871c-0.4098-1.2341-0.4098-2.5104,0-3.8256
		c0.1644-0.659,0.3494-1.2952,0.5559-1.9126c0.2042-0.617,0.3487-1.255,0.432-1.9122l0.3701-0.7405v-0.2466
		c0-0.083,0.0405-0.1239,0.1238-0.1239c0.1637-0.9874,0.3694-1.9336,0.6163-2.8377c0.247-0.9049,0.5345-1.809,0.864-2.715
		l1.7279-5.183c0.4107-1.3977,0.8014-2.7552,1.1722-4.0722c0.37-1.3148,0.7592-2.6722,1.1721-4.0721
		c0.1644-0.4102,0.3082-0.8212,0.432-1.2337c0.1238-0.4109,0.2661-0.8215,0.4319-1.2339c0.3281-1.2344,0.6576-2.4681,0.9872-3.7021
		c0.328-1.2337,0.6981-2.5086,1.1102-3.8252c0.6575-2.2211,1.3984-4.2767,2.2218-6.1698c0.0804-0.328,0.1423-0.5964,0.1843-0.8027
		c0.0412-0.2038,0.0619-0.4316,0.0619-0.6786l0.864-2.5915c0.4106-1.1507,0.7814-2.2613,1.1109-3.3312
		c0.3281-1.0682,0.6981-2.1792,1.1102-3.3317c0.2469-0.4939,0.432-1.192,0.5551-2.0984c0.1238-0.9042,0.143-1.7681,0.0619-2.5908
		c-0.0826-0.8216-0.289-1.4814-0.617-1.9746c-0.3295-0.4939-0.864-0.5746-1.6033-0.2473c-0.3303,0.1659-0.6797,0.2684-1.0497,0.3089
		c-0.3701,0.0424-0.6782,0.185-0.9252,0.4316c-0.4128,0.1659-0.8854,0.4319-1.4191,0.8027
		c-0.536,0.3697-0.8448,0.5972-0.9259,0.6786c-0.4931,0.1658-0.8847,0.5145-1.1721,1.0482c-0.289,0.5367-0.5551,1.0089-0.802,1.4195
		c-0.1659,0.247-0.3295,0.4744-0.4931,0.6786c-0.1659,0.2068-0.3303,0.4316-0.4939,0.679c-0.247,0.4124-0.5153,0.4319-0.802,0.0615
		c-0.289-0.3701-0.351-0.5957-0.185-0.6786c0.328-0.7405,0.6981-1.4596,1.1102-2.16c0.4113-0.6977,0.945-1.2952,1.6048-1.7891
		c0-0.0807,0.2868-0.3085,0.8633-0.6786c0.575-0.3704,1.2531-0.7597,2.0361-1.1724c0.7806-0.4103,1.6446-0.7405,2.5918-0.9871
		c0.9444-0.2466,1.829-0.2466,2.6524,0c1.0689,0.2465,1.9749,0.9469,2.715,2.0976c0.6576,0.7405,1.2126,1.5853,1.666,2.5295
		c0.4512,0.9469,0.6782,2.2429,0.6782,3.8875c-0.1659,0.7405-0.2676,1.4619-0.3075,2.1596
		c-0.0427,0.6995-0.1452,1.3782-0.3088,2.0357c-0.1659,0.6597-0.2891,1.2959-0.3709,1.9133
		c-0.0825,0.6167-0.2064,1.2547-0.37,1.9122c-0.1659,0.7405-0.3509,1.4401-0.5551,2.0976c-0.2064,0.6598-0.3914,1.317-0.5551,1.9746
		l-2.3449,8.3912l-1.7272,5.9232l-2.2219,7.5276l1.9749-2.9616c0.4939-0.7405,0.9451-1.4386,1.3572-2.0984
		C16.8834,72.1388,17.1312,71.7282,17.2137,71.5624z"/>
	<path d="M68.4804,66.9325c1.562,0.1658,2.8381,0.6595,3.8252,1.481c0.2469,0.8231,0.2469,1.6465,0,2.4681
		c0,0.4124-0.0207,0.7829-0.0612,1.1102c-0.0427,0.3299-0.1047,0.6598-0.185,0.9874c-0.247,1.2336-0.617,2.4278-1.1109,3.5786
		c-0.4939,1.1529-0.9465,2.304-1.3572,3.4548c-0.5764,1.3173-0.9465,2.5513-1.1109,3.7021l-0.6163,1.851
		c-0.0833,0.6594-0.2723,1.3431-0.3541,1.8768c-0.0825,0.5367-0.1781,0.9872-0.2637,1.5786
		c-0.0722,0.4988,0.3954,0.7022,0.4935,0.764c0.2387,0.1503,0.4516,0.0993,0.8643,0.0993c0.8212-0.1636,1.5614-0.4103,2.2211-0.7398
		c0.7401-0.4109,1.5209-0.843,2.3442-1.296c0.8212-0.4511,1.562-0.9661,2.2211-1.5422c0.328-0.164,1.3151-1.0685,1.481-1.234
		c1.1515-1.0685,3.0498-2.8008,4.1818-3.9507c2.128-2.1615,4.4206-4.3677,5.3744-5.4455c4.3493-4.9151,7.1621-7.0896,7.6973-8.1194
		c0.5345-1.0277,0.9259-1.7892,1.1729-2.283c0.328-0.5747,0.617-0.7398,0.864-0.4932c0.2462,0.2466,0.2867,0.536,0.1231,0.864
		c-0.247,0.4931-0.617,1.2547-1.1103,2.283c-0.4938,1.0291-4.3848,4.8582-7.4669,8.2083c-0.9134,0.9922-3.6252,3.7087-5.2051,5.4455
		l-4.4559,4.1874c-0.6591,0.6598-1.5048,1.4432-2.1623,2.0178c-0.6598,0.5768-2.715,1.7279-2.715,1.7279
		c-1.0696,0.7405-2.2632,1.2765-3.5783,1.6041c-0.3295,0.0829-0.6384,0.1235-0.9251,0.1235c-0.2897,0-0.5559,0-0.8021,0
		c-0.9067-0.1636-1.6454-0.3892-2.2219-0.6786c-0.5742-0.2875-1.1912-0.7195-1.851-1.2959
		c-1.1508-0.8212-1.7272-1.9318-1.7272-3.332c-0.1644-1.2336-0.0405-2.4249,0.37-3.5782c0.247-0.4109,0.4129-0.8426,0.4939-1.2956
		c0.0826-0.4516,0.2064-0.9259,0.37-1.4191l2.0973-5.3062c0.3302-0.9045,0.6598-1.83,0.9877-2.7765
		c0.328-0.9447,0.6575-1.8702,0.9871-2.7765c0.1637-0.3281,0.3082-0.6576,0.432-0.9872
		C67.9252,67.4685,68.1508,67.1795,68.4804,66.9325z M72.9314,59.8878c0.9059-0.0125,1.1831,0.1773,1.8429,0.7519
		c0.0803,0,0.2042,0.1231,0.3701,0.3697c0.5742,0.9067,0.4511,1.5234-0.3701,1.8511c-0.5773,0.1662-1.0299,0.1662-1.3579,0
		c-0.2469-0.2466-0.5145-0.4316-0.802-0.5551c-0.289-0.1234-0.6325-0.6265-0.6686-0.9215
		C71.8146,60.3161,72.6048,59.8922,72.9314,59.8878z"/>
	<path d="M99.3752,81.2263c0.1636,0.1658,0.4725,0.6995,0.9252,1.6041c0.4518,0.906,0.9878,1.8101,1.6048,2.7146
		c0.6163,0.9063,1.234,1.6664,1.851,2.283c0.6163,0.617,1.1721,0.7209,1.666,0.3085c0.5743-0.5747,1.1508-1.1105,1.7272-1.6045
		c0.575-0.4931,2.1172-2.0976,2.4061-2.3442c0.2875-0.2469,4.381-4.3195,4.381-4.3195c0.247-0.3273,2.7335-3.5167,3.2694-4.3799
		c0.5344-0.8639,1.1301-1.7471,1.7899-2.6538c0.2469-0.4103,0.5337-0.5551,0.8639-0.4316c0.3273,0.1231,0.4107,0.4316,0.2463,0.9255
		c-0.1659,0.2465-0.3295,0.5359-0.4932,0.864c-0.1659,0.3295-0.3302,0.6166-0.4939,0.8639
		c-0.4939,0.5761-1.2623,1.9736-1.7562,2.6304c-0.4121,0.6598-1.926,2.3054-2.3779,2.7989
		c-0.4526,0.4935-1.9216,2.0494-2.5452,2.7756c-0.7618,0.8871-2.0009,2.12-2.8221,2.7776c-0.3296,0.3295-0.7615,0.7825-1.296,1.3571
		c-0.5359,0.5769-1.1316,1.1725-1.7892,1.7895c-0.659,0.6167-1.3166,1.1315-1.9742,1.5426c-0.6597,0.4124-1.2768,0.576-1.851,0.4931
		c-0.9067-0.1637-1.6288-0.6233-2.345-1.1725c-1.912-1.4659-3.1677-3.844-3.332-4.2568l-1.3572-2.468
		c-0.4121-0.411-0.659-0.6981-0.7401-0.864c-0.2469,0.2466-0.4533,0.9469-0.617,2.0976c-0.1659,1.1533-0.247,1.8511-0.247,2.098
		c-0.0833,0.6598-0.2469,1.1109-0.4931,1.3576c-0.247,0.2465-0.7003,0.453-1.3579,0.6166c-1.234,0.0829-2.2211-0.2466-2.962-0.9871
		c-0.3295-0.3273-0.6354-0.5957-0.9252-0.802c-0.2874-0.2042-0.6361-0.432-1.049-0.6786c-0.4107-0.328-0.5337-0.8212-0.37-1.481
		c0.0833-0.7401,0.1858-1.6233,0.3088-2.653c0.1231-1.0277,0.289-2.0766,0.4932-3.1467c0.2064-1.0681,0.3914-2.0976,0.555-3.0851
		c0.1658-0.9871,0.2897-1.851,0.3708-2.5908l0.6163-2.4684c0.3281-1.1508,0.5964-2.2831,0.8028-3.3936
		c0.2042-1.1103,0.432-2.2403,0.6789-3.3933l1.2333-4.6895c0.4113-0.9041,0.97-2.8106,1.9749-5.4293
		c0,0,1.8083-3.8251,2.2211-4.5656l2.098-3.9486c0.1636-0.3277,0.3487-0.6579,0.5551-0.9875
		c0.2042-0.3272,0.3892-0.6169,0.555-0.8635c0.4106-0.9874,0.9045-1.9126,1.481-2.7765c0.5743-0.8636,1.1912-1.7062,1.8511-2.5296
		c0.4939-0.6576,1.0276-1.2746,1.6041-1.851c0.575-0.5747,1.1507-1.1917,1.7279-1.8511c0.7401-0.8212,1.5827-1.5425,2.5293-2.1595
		c0.9451-0.6167,1.8702-1.2532,2.7762-1.9126c1.2341-0.9871,2.7961-1.3576,4.6899-1.1102c0.3273,0.0829,0.6354,0.1659,0.9251,0.2465
		c0.2875,0.083,0.6362,0.1659,1.049,0.2466c0.9871,0.2466,1.8915,0.8234,2.715,1.7276c0.4098,0.5764,0.6981,1.1323,0.8632,1.666
		c0.1644,0.5359,0.2875,1.0914,0.3701,1.6656c0.1644,0.9064,0.2042,1.7493,0.1239,2.5296
		c-0.0833,0.7833-0.1658,1.5849-0.2469,2.4065c-0.247,2.0571-0.7829,3.9081-1.6041,5.5531
		c-0.0834,0.1659-0.2897,0.5764-0.617,1.2336c-0.3302,0.6598-0.7217,1.4003-1.1721,2.2215c-0.4533,0.823-0.9472,1.6255-1.481,2.4065
		c-0.5359,0.7825-1.049,1.4191-1.5428,1.9122c-0.8234,0.5768-1.5636,1.1934-2.2211,1.851c-0.6598,0.6595-1.3166,1.317-1.9741,1.9746
		c-0.4939,0.4124-0.968,0.8444-1.4191,1.2959c-0.4526,0.4526-0.9679,0.8846-1.5422,1.2956
		c-0.1658,0.1658-0.3089,0.3295-0.432,0.4931c-0.1238,0.1662-0.3088,0.2893-0.555,0.3708
		c-0.6598,0.5761-1.3173,1.1315-1.9749,1.6656c-0.6597,0.5359-1.3999,1.0486-2.2211,1.5426
		c-0.8234,0.659-1.6874,1.2337-2.5912,1.7276c-0.9067,0.4935-1.6284,1.2035-2.468,1.7272
		c-0.4939,0.3081-0.8408,0.5203-0.8408,0.5203s-0.2829,2.2041-0.6954,3.5832c0.1176-0.3932,1.0209-0.7715,1.9674-1.2654
		c0.9458-0.4931,1.994-0.9252,3.147-1.2956c1.1507-0.37,2.3641-0.5742,3.6402-0.6167c1.2753-0.0405,2.4061,0.2676,3.3939,0.9252
		c0.4106,0.3295,0.9657,0.7003,1.6653,1.1106c0.6981,0.4132,0.9259,1.07,0.6797,1.9745c-0.2477,0.6597-0.7217,1.2554-1.4198,1.7895
		c-0.6995,0.5359-1.481,1.0486-2.3442,1.5426c-0.864,0.4931-1.728,0.9679-2.5912,1.4191c-0.8639,0.453-1.5849,0.9252-2.1599,1.419
		l-2.2211,2.0977c-0.1658,0.0829-0.3081,0.2274-0.4319,0.432C99.6841,80.8773,99.5388,81.0623,99.3752,81.2263z M95.0561,78.6348
		c0.9046-0.7405,1.7685-1.4386,2.5919-2.098c0.8212-0.6576,1.6852-1.3151,2.5912-1.9742c0.6569-0.4935,1.6482-1.061,2.962-1.7279
		c3.8063-1.932,3.3718-2.7954,3.2082-2.9617c-0.4939-0.4102-1.2554-0.5746-2.2831-0.4931c-1.0298,0.083-2.0788,0.3506-3.147,0.8021
		c-1.0704,0.453-2.098,1.049-3.085,1.7891c-0.9871,0.7405-1.6867,1.5234-2.0973,2.345c0,0.1659-0.5359,2.3866-0.6178,2.7146
		C95.0966,77.3602,94.9735,78.5537,95.0561,78.6348z M98.9011,64.918c0.6718-0.4509,1.0514-0.7133,1.4321-0.9989
		c0.6521-0.4893,1.1806-0.8114,1.757-1.2648c0.5742-0.4507,1.1507-0.9251,1.7272-1.419l3.949-3.0851l1.3579-1.2336l4.8122-4.1953
		l0.4932-0.2473c1.3984-1.6442,2.5085-3.3316,3.332-5.0592c0.8212-1.7272,1.481-3.5783,1.9749-5.5528
		c0.1637-0.4109,0.2463-0.822,0.2463-1.2344c0-0.4102,0.0811-0.8211,0.247-1.2336c0.1636-0.7405,0.2462-1.4807,0.2462-2.2211
		c0-0.7405,0-1.5215,0-2.345c0-0.3273-0.0206-0.6361-0.0611-0.9251c-0.0428-0.2871-0.1445-0.6362-0.3089-1.0494
		c-0.4121-0.6568-0.8013-1.0272-1.1721-1.1102c-0.3701-0.0811-0.8846,0.083-1.5422,0.4935
		c-0.4128,0.1659-0.7615,0.4129-1.049,0.7409c-0.289,0.3295-0.6384,0.659-1.049,0.9871l-3.3313,3.2082
		c-0.6597,0.7405-1.2959,1.4618-1.913,2.1595c-0.617,0.6996-1.2148,1.4187-1.7891,2.1592c-0.9067,1.3166-1.7486,2.6744-2.53,4.0721
		c-0.7829,1.4003-1.5016,2.7976-2.1591,4.196c-0.4939,0.9871-0.9473,1.9741-1.3578,2.9616
		c-0.4128,0.9871-0.9465,2.0162-1.6041,3.0848l-0.4939,1.4806c-0.2462,0.4128-0.4121,0.8635-0.4931,1.3575
		c-0.4939,1.1533-0.8846,2.2639-1.1729,3.3316c-0.289,1.07-0.5971,2.6836-0.9251,3.8351
		C97.5242,65.8109,98.6812,65.0656,98.9011,64.918z"/>
	<path d="M141.0411,77.2413c-0.4121,0.987-0.8015,1.9338-1.2535,3.0448c-0.4526,1.1105-0.8846,2.1186-1.2952,3.0231
		c-0.1659,0.4124-0.6171,1.1935-1.3571,2.345c-0.7409,1.1522-1.3999,1.9741-1.9749,2.4677
		c-0.3296,0.3296-0.8235,0.6786-1.4811,1.0491c-0.659,0.37-1.3571,0.6995-2.0972,0.9871c-0.7402,0.2893-1.461,0.5359-2.1591,0.7401
		c-0.7003,0.206-1.2554,0.3085-1.6667,0.3085c-0.7394,0.0829-1.4611,0.0217-2.1592-0.1847
		c-0.6996-0.2046-1.3785-0.432-2.0361-0.6793c-0.4121-0.1637-0.802-0.4102-1.1721-0.7398c-0.3701-0.328-0.7216-0.6576-1.049-0.9874
		c-0.5765-0.6575-1.1102-1.2745-1.6041-1.851c-0.4932-0.5746-0.9465-1.2746-1.3572-2.0976
		c-0.575-1.1515-0.8639-2.2215-0.8639-3.2085c-0.1636-1.3148-0.1231-2.5912,0.1231-3.8256
		c0.2469-1.2337,0.5764-2.4253,0.9871-3.5782c0.1644-0.2473,0.3089-0.5131,0.4319-0.8024c0.1239-0.2871,0.1431-0.6362,0.062-1.0487
		c-1.3151-1.1515-2.098-2.4256-2.345-3.8251c-0.2462-1.3985-0.0803-2.7346,0.4939-4.011c0.5765-1.2742,1.4383-2.4467,2.5911-3.5167
		c1.1515-1.0682,2.4261-1.8086,3.8252-2.2211c1.6454-0.5746,3.2708-0.843,4.8749-0.802c1.6041,0.042,2.7335,0.185,3.3933,0.432
		c1.7271,0.823,3.1256,1.8101,4.1959,2.9616c1.0674,1.1526,1.9314,2.3041,2.5912,3.4552c0.6568,1.1529,1.1507,2.2425,1.4802,3.2701
		c0.328,1.0295,0.575,1.8315,0.7408,2.4061c0.247,0.9064,0.3893,1.9549,0.432,3.1469c0.0405,1.1935,0.0192,1.955-0.0619,2.2823
		c0.4106,0.1658,1.234,0.1238,2.468-0.1235c1.2341-0.2466,2.53-0.5746,3.8871-0.9871c1.3571-0.4102,2.6111-0.8639,3.7641-1.3571
		c1.1507-0.4939,1.8502-0.9446,2.0972-1.3571l0.74-0.4939c0.247-0.1636,0.5751-0.2042,0.9872-0.1235
		c0.0818,0.083,0.0818,0.247,0,0.4935c-0.0818,0.2474-0.2065,0.4534-0.3701,0.617c-0.8234,0.5765-1.6866,1.1323-2.5911,1.666
		c-0.906,0.5363-1.8503,1.0085-2.8382,1.4191c-1.1529,0.4124-2.5209,0.8603-4.134,1.2337
		C143.9657,77.087,142.8317,77.1766,141.0411,77.2413z M140.0966,75.9054c0.3281-1.2344,0.247-2.8576-0.2462-4.8746
		c-0.4939-2.0146-1.2768-3.9486-2.3449-5.7997c-1.0704-1.851-2.3449-3.4127-3.826-4.6891c-1.4802-1.2742-3.0843-1.8296-4.8122-1.666
		c-1.3166,0.1658-2.4887,0.3512-3.517,0.5554c-1.0291,0.2061-1.9956,0.5149-2.8993,0.9259c-1.234,0.7397-2.221,1.5632-2.962,2.4677
		c-0.7401,0.9064-1.234,1.8511-1.481,2.8381c-0.2462,0.9871-0.2255,1.934,0.0619,2.8381c0.2897,0.9064,0.802,1.6874,1.5429,2.3446
		c0-0.0811,0.1422-0.3277,0.4313-0.7402c0.2874-0.4109,0.5963-0.8429,0.9258-1.2959c0.328-0.4511,0.6362-0.8831,0.9252-1.2956
		c0.2875-0.4109,0.8194-0.9669,1.1895-1.0904c0.37-0.1231,1.9154-0.2667,2.3275-0.0201h0.3701
		c0.4939-0.0815,0.8831,0.021,1.1728,0.3085c0.2868,0.2893,0.6354,0.5978,1.049,0.9252c0.453,0.4552,0.6001,0.9603,0.4403,1.5169
		c-0.0427,0.1488-0.3172,0.8896-0.5642,1.2597c-0.2469,0.3705-0.5359,0.7829-0.8632,1.2344
		c-0.3302,0.453-0.6178,0.8846-0.864,1.2956c-0.2477,0.4125-0.3708,0.6594-0.3708,0.7401c0.1644,0.1659,0.4106,0.3303,0.7409,0.4939
		c0.5742,0.1658,1.1102,0.3085,1.6041,0.4319c0.4931,0.1231,2.7762,0.4931,3.3932,0.6166c0.617,0.1239,4.0508,0.3915,5.1211,0.5551
		C137.7096,75.9474,138.8625,75.9883,140.0966,75.9054z M126.8931,89.479c1.809,0,3.3512-0.2662,4.6273-0.802
		c1.2746-0.5341,2.3235-1.1725,3.1463-1.9126c0.8219-0.7405,1.4603-1.5001,1.9129-2.2826c0.4519-0.7811,0.802-1.4195,1.049-1.913
		c0.3281-0.6572,0.6362-1.4195,0.9259-2.2826c0.2868-0.864,0.5551-1.6236,0.802-2.2831c0.0812-0.164,0.1637-0.3084,0.2462-0.4319
		c0.0811-0.1231-0.0417-0.4403,0.1239-0.4316c-0.7063-0.0368-1.234,0.1441-2.4681-0.0619c-1.234-0.2042-2.2639-0.3089-3.0851-0.3089
		c-0.659,0-1.4618-0.0807-2.4061-0.2466c-0.9465-0.1637-1.8724-0.3273-2.7761-0.4932c-0.9068-0.1644-1.728-0.349-2.4681-0.5554
		c-0.7409-0.2046-1.1537-0.3085-1.234-0.3085c-0.3295,0.4931-0.5979,1.1106-0.8028,1.851c-0.2064,0.7402-0.3907,1.3999-0.555,1.9745
		c-0.4128,1.2337-0.6163,2.3867-0.6163,3.4548c0,0.2473,0.0398,0.7209,0.1231,1.419c0.0803,0.7003,0.2661,1.4408,0.555,2.2215
		c0.2868,0.7825,0.6576,1.5016,1.111,2.1591C125.5551,88.9047,126.153,89.3149,126.8931,89.479z"/>
	<path d="M152.972,95.488c0.4106,0.1659,0.945,0.1659,1.6041,0c0.6575-0.3273,1.1913-0.5956,1.6048-0.8017
		c0.4106-0.2042,0.9038-0.5554,1.4803-1.0493c0.4113-0.4103,0.8212-0.8017,1.234-1.1718c0.4106-0.3704,2.1792-2.0364,2.345-2.283
		c0.3273-0.328,0.8418-0.8831,1.5421-1.6656c0.6982-0.7811,1.3771-1.5621,2.0361-2.345c0.6576-0.781,1.2539-1.5001,1.7899-2.1591
		c0.5337-0.6576,1.0477-1.2089,1.2946-1.6217c0.2463-0.4102,1.1116-1.6679,1.3578-2.0804c0.1636-0.3281,0.4725-0.8831,0.9258-1.6657
		c0.4512-0.781,0.8832-1.4194,1.2953-1.9129c0.4113-0.4106,0.7814-0.5344,1.1109-0.3701c0.3281,0.1659,0.3701,0.4931,0.1239,0.987
		c-0.4135,0.6595-0.8639,1.4619-1.3578,2.4061c-0.4932,0.9469-0.7409,1.4615-0.7409,1.5426
		c-0.9989,1.5806-1.6428,2.6952-3.1275,4.4282c-1.2903,1.5061-3.4119,3.7584-3.6589,4.0865
		c-0.247,0.3295-0.5359,0.6786-0.8633,1.0486c-0.3303,0.3705-0.6384,0.7214-0.9258,1.049c-0.2897,0.3299-1.8724,1.6041-2.0361,1.851
		c-0.2469,0.247-0.4939,0.4741-0.7401,0.6786c-0.2469,0.2064-0.4939,0.4319-0.7408,0.6786c-0.659,0.4128-1.3572,0.802-2.098,1.1724
		c-0.7401,0.3701-1.5636,0.6384-2.468,0.802c-0.4931,0-0.864-0.0405-1.1102-0.1235c-1.6469-0.2465-3.1684-0.9443-4.5654-2.0976
		l-2.0987-1.7275c-0.4098-0.4939-0.6981-1.0066-0.864-1.5426c-0.1636-0.5341-0.2868-1.1297-0.3693-1.7891
		c-0.1644-1.2344-0.2263-2.4876-0.1858-3.764c0.0427-1.2742,0.1858-2.5702,0.4319-3.8868c0.3302-1.1515,0.6384-2.3449,0.9259-3.5786
		c0.289-1.2341,0.6384-2.4257,1.0483-3.579l1.1116-3.3316l1.1102-3.9486c0.3273-1.2337,0.6981-2.4869,1.111-3.7633
		c0.4099-1.2749,0.8212-2.5296,1.2333-3.764l0.7408-1.9745c0.2462-0.8212,0.5338-1.6037,0.864-2.3442
		c0.3273-0.7405,0.6163-1.4814,0.864-2.2211c0.4099-1.1515,0.8824-2.3026,1.4191-3.4555c0.5337-1.1507,1.0483-2.3022,1.5421-3.4555
		c0.247-0.5739,0.5338-1.1293,0.8633-1.6656c0.328-0.5337,0.6576-1.0486,0.9878-1.5426c0.2469-0.3273,0.4726-0.6576,0.6782-0.9871
		c0.2042-0.3277,0.39-0.6576,0.5559-0.9871c0.2462-0.3277,0.4931-0.6981,0.7401-1.1105c0.247-0.4109,0.4933-0.7405,0.7402-0.9874
		c0.6575-0.9041,1.3365-1.7062,2.0361-2.4061c0.6981-0.6981,2.0775-2.1593,5.3062-3.9486c0.9553-0.5294,2.1172-0.6362,3.2701-0.802
		c0.3281-0.0815,1.6852,0.2064,2.098,0.37c1.3151,0.4125,2.3449,0.9259,3.0843,1.5425c0.7409,0.617,1.2959,1.2957,1.6668,2.0361
		c0.3701,0.7405,0.5957,1.523,0.6782,2.3446c0.0811,0.8234,0.2949,2.4571-0.1231,5.6762c-0.1477,1.1377-0.8234,2.1806-1.234,3.3317
		c-0.5764,1.2343-1.1721,2.4279-1.7891,3.5786c-0.6178,1.1533-1.338,2.304-2.1599,3.4555c-0.1652,0.3296-0.289,0.536-0.3701,0.6166
		c-0.4932,1.07-3.2509,4.4853-4.0721,5.3066l-0.7401,0.8639c-0.0833,0.1652-0.5359,0.6381-1.3571,1.4183
		c-0.8234,0.7833-1.4412,1.3789-1.8511,1.7899l-4.4429,4.5653c-1.0667,0.8676-1.6479,1.3076-2.7816,2.2215
		c-0.7969,0.6424-1.867,1.2764-2.7708,1.851c-0.3302,0.083-0.5772,0.4125-0.7408,0.9874c-0.4121,1.2337-0.8234,2.4677-1.2333,3.7013
		c-0.4136,1.2344-0.7408,2.5514-0.9878,3.9487c-0.1658,0.9064-0.3509,1.8109-0.5558,2.715
		c-0.2057,0.9064-0.3907,1.851-0.5551,2.8381c-0.1651,0.9063-0.2462,1.8721-0.2462,2.9004c0,1.0291,0.0811,2.0357,0.2462,3.0228
		c0.1644,0.4125,0.2875,0.8025,0.3708,1.1725C152.5592,94.9329,152.7251,95.2414,152.972,95.488z M176.6647,35.1464
		c-0.5765-0.4109-1.1935-0.3085-1.8511,0.3082c-0.6598,0.6174-1.234,1.1319-1.7272,1.5429c-1.0703,0.906-2.0574,1.893-2.9619,2.9616
		c-0.906,1.0696-1.8104,2.1806-2.715,3.3316c-0.7401,0.8234-1.3571,1.7276-1.851,2.715c-0.4931,0.9871-1.0291,1.934-1.6033,2.8381
		c-0.6598,1.153-1.2149,2.3251-1.6667,3.5167c-0.4527,1.1935-0.8846,2.4065-1.2953,3.6402l-3.2088,9.3786
		c-0.2463,0.8227-0.4932,1.6255-0.7401,2.4061c-0.247,0.7825-1.0804,3.6402-1.0804,3.6402s1.5451-0.8876,2.1216-1.3008
		c0.575-0.4102,1.3692-0.9902,1.9979-1.4144c1.4674-0.9901,1.9648-1.7457,2.9526-2.652c0.9871-0.9045,7.5061-7.9826,8.2753-9.3551
		c0.3702-0.6605,2.5155-3.3749,3.0087-4.2812c1.1514-1.8086,2.098-3.6192,2.8389-5.4293l0.9871-2.9616
		c0.2462-0.7405,0.37-1.6045,0.37-2.5915c0-0.1637,0-0.5127,0-1.049c0-0.5337-0.042-1.1294-0.1238-1.7891
		c-0.0826-0.6576-0.2676-1.3147-0.5551-1.9746C177.5479,35.9695,177.1587,35.4763,176.6647,35.1464z"/>
	<g>
		<g>
			<path d="M57.8869,112.7454h-1.5593c-0.4029-1.0118-0.8121-2.0166-1.2287-3.0146c-0.4166-0.998-0.8258-2.008-1.2287-3.0313
				l-1.4588,1.0984l-1.0479,4.9475h-1.4255l2.5911-12.2594h1.4255l-1.2666,5.9535l5.8697-5.9535h1.7527l-5.3584,5.3412
				L57.8869,112.7454z"/>
			<path d="M60.6708,112.7454h-1.4083l2.7839-13.0479h1.4083L60.6708,112.7454z"/>
			<path d="M68.5032,103.3876c0.5142,0,0.9722,0.1383,1.3751,0.4149c0.4023,0.2766,0.7156,0.6749,0.9389,1.1948h0.0924
				l0.5618-1.4422h1.0651l-1.9541,9.1902h-1.1151l0.2181-1.7527h-0.0671c-1.0009,1.2803-2.0545,1.9202-3.1616,1.9202
				c-0.777,0-1.3865-0.2766-1.8278-0.8298c-0.4419-0.5538-0.6623-1.3113-0.6623-2.2726c0-1.1627,0.198-2.2416,0.5951-3.2367
				c0.3971-0.9951,0.9446-1.775,1.6436-2.3397C66.9043,103.67,67.6699,103.3876,68.5032,103.3876z M66.9095,111.7474
				c0.5423,0,1.0818-0.2583,1.6184-0.7753c0.5372-0.5171,0.9727-1.1908,1.3084-2.0212c0.3351-0.8298,0.5027-1.6614,0.5027-2.4947
				c0-0.5756-0.1561-1.0341-0.4694-1.375c-0.3128-0.3409-0.7237-0.5113-1.2327-0.5113c-0.5813,0-1.1219,0.2405-1.6224,0.7208
				c-0.5004,0.4809-0.893,1.1323-1.1782,1.9541s-0.4276,1.6884-0.4276,2.5991c0,0.6376,0.1314,1.1139,0.3943,1.4301
				C66.0653,111.5896,66.4343,111.7474,66.9095,111.7474z"/>
			<path d="M77.4168,112.913c-0.5423,0-1.0175-0.1395-1.4255-0.4189c-0.4086-0.2795-0.7242-0.6709-0.9475-1.1742h-0.0844
				l-0.0333,0.3185c-0.0166,0.14-0.0459,0.3357-0.0878,0.5871c-0.0419,0.2514-0.3621,1.8003-0.9601,4.6456H72.486l2.8178-13.3159
				h1.1656l-0.2181,1.7526h0.0672c1.0003-1.2694,2.0402-1.9036,3.1191-1.9036c0.7656,0,1.3693,0.2726,1.8112,0.8172
				c0.4413,0.5452,0.6623,1.3096,0.6623,2.2938c0,1.1851-0.1928,2.272-0.5785,3.262c-0.3856,0.9894-0.9193,1.7596-1.6017,2.3099
				C79.0489,112.6381,78.2776,112.913,77.4168,112.913z M78.9761,104.5698c-0.5366,0-1.0829,0.2657-1.639,0.7966
				c-0.5567,0.5308-0.998,1.1989-1.3251,2.004c-0.3271,0.8052-0.4907,1.6299-0.4907,2.4734c0,0.6152,0.1555,1.0864,0.4654,1.4129
				c0.3105,0.3271,0.7593,0.4907,1.3463,0.4907c0.5532,0,1.0686-0.2261,1.5466-0.6789c0.4781-0.4528,0.8626-1.0973,1.153-1.9328
				c0.2909-0.8356,0.4362-1.7234,0.4362-2.6623C80.4687,105.204,79.9712,104.5698,78.9761,104.5698z"/>
			<path d="M85.5253,108.0579l4.4109-4.5027h1.6855l-3.9328,3.9156l2.4734,5.2746h-1.5679l-1.9707-4.3937l-1.2746,1.0313
				l-0.6875,3.3624H83.236l2.7673-13.0479h1.4255c-0.4029,1.8783-0.7633,3.5615-1.0818,5.0485
				c-0.3185,1.487-0.6037,2.5911-0.8551,3.3119H85.5253z"/>
			<path d="M96.5267,103.4376c1.0623,0,1.9007,0.3145,2.5159,0.9435c0.6147,0.629,0.9222,1.4938,0.9222,2.5951
				c0,1.0514-0.2014,2.0436-0.6037,2.9768c-0.4023,0.9337-0.9475,1.6551-1.635,2.1635c-0.6875,0.509-1.4646,0.7633-2.3312,0.7633
				c-1.0737,0-1.9151-0.3156-2.5239-0.9475c-0.6095-0.6318-0.9142-1.4955-0.9142-2.5911c0-1.0623,0.2043-2.0614,0.6123-2.998
				c0.408-0.936,0.9584-1.6545,1.6516-2.1549C94.914,103.6878,95.6825,103.4376,96.5267,103.4376z M98.506,106.7833
				c0-0.6428-0.175-1.1638-0.5245-1.5638c-0.3489-0.3994-0.8229-0.5997-1.421-0.5997c-0.6095,0-1.1558,0.2072-1.6396,0.621
				c-0.4832,0.4137-0.8579,0.9882-1.1236,1.7228c-0.2657,0.7351-0.3983,1.5529-0.3983,2.4528c0,0.7323,0.1773,1.2987,0.5325,1.6981
				c0.3553,0.4,0.8649,0.5997,1.5306,0.5997c0.5814,0,1.1036-0.2043,1.5679-0.6123c0.4637-0.4081,0.8258-0.9882,1.0858-1.74
				C98.3757,108.61,98.506,107.7509,98.506,106.7833z"/>
			<path d="M102.6397,112.7454l-1.0479-9.1902h1.4083l0.5372,5.1403c0.1337,1.4422,0.2008,2.4539,0.2008,3.0353h0.0505
				c0.7099-1.5375,1.2103-2.5745,1.5007-3.111l2.7254-5.0645h1.4927l-4.9555,9.1902H102.6397z"/>
			<path d="M114.0606,103.3876c0.5142,0,0.9727,0.1383,1.375,0.4149c0.4029,0.2766,0.7156,0.6749,0.9395,1.1948h0.0924
				l0.5618-1.4422h1.0646l-1.9535,9.1902h-1.1156l0.2181-1.7527h-0.0671c-1.0003,1.2803-2.0539,1.9202-3.1609,1.9202
				c-0.7771,0-1.3865-0.2766-1.8279-0.8298c-0.4419-0.5538-0.6628-1.3113-0.6628-2.2726c0-1.1627,0.1986-2.2416,0.5957-3.2367
				c0.3966-0.9951,0.9446-1.775,1.6431-2.3397C112.4618,103.67,113.2273,103.3876,114.0606,103.3876z M112.4675,111.7474
				c0.5423,0,1.0818-0.2583,1.6184-0.7753c0.5366-0.5171,0.9727-1.1908,1.3079-2.0212c0.3357-0.8298,0.5033-1.6614,0.5033-2.4947
				c0-0.5756-0.1567-1.0341-0.4694-1.375c-0.3133-0.3409-0.7243-0.5113-1.2327-0.5113c-0.5814,0-1.1225,0.2405-1.6224,0.7208
				c-0.5004,0.4809-0.8936,1.1323-1.1782,1.9541c-0.2852,0.8218-0.4281,1.6884-0.4281,2.5991c0,0.6376,0.1314,1.1139,0.3943,1.4301
				C111.6233,111.5896,111.9923,111.7474,112.4675,111.7474z M113.7335,102.113c0.3133-0.3357,0.664-0.7593,1.0525-1.2706
				c0.3885-0.5113,0.6864-0.9291,0.893-1.2539h1.5931v0.1762c-0.2123,0.2743-0.6037,0.6962-1.1736,1.2666
				c-0.5704,0.5699-1.0651,1.006-1.4846,1.3079h-0.8803V102.113z"/>
		</g>
	</g>
</g>
</svg>
