<?xml version="1.0" encoding="utf-8"?>
<!-- Generator: Adobe Illustrator 18.1.1, SVG Export Plug-In . SVG Version: 6.00 Build 0)  -->
<svg version="1.1" id="to-edit-in-vector_1_" xmlns="http://www.w3.org/2000/svg" xmlns:xlink="http://www.w3.org/1999/xlink"
	 x="0px" y="0px" viewBox="0 0 400.005 155.845" enable-background="new 0 0 400.005 155.845" xml:space="preserve">
	 <title>Logo</title>
<g id="Linnette">
	<g>
		<path fill="#FBA07C" d="M93.382,103.908c-0.552,1.062-1.296,2.002-2.238,2.82c-0.158,0.159-0.317,0.236-0.471,0.236
			c-0.317,0-0.589-0.118-0.825-0.354c-0.236-0.236-0.353-0.509-0.353-0.826V63.084H73.474v37.51c0,4,1.333,7.358,4.005,10.078
			c2.669,2.72,5.89,4.077,9.66,4.077c3.77,0,7.027-1.357,9.777-4.077c2.746-2.72,4.123-6.078,4.123-10.078h-6.832
			C94.206,101.741,93.93,102.846,93.382,103.908z M160.292,101.774c-0.081,0.472-0.276,1.025-0.589,1.651
			c-0.158,0.789-0.512,1.533-1.06,2.241c-0.552,0.708-1.141,1.062-1.767,1.062c-0.471,0-0.747-0.077-0.825-0.236
			c-0.081-0.155-0.118-0.391-0.118-0.708v-0.236V76.295c0-2.201-0.471-4.206-1.414-6.016c-0.942-1.806-2.201-3.34-3.77-4.6
			c-1.572-1.257-3.339-2.241-5.301-2.949c-1.966-0.708-3.968-1.062-6.008-1.062c-1.414,0-2.827,0.159-4.241,0.472
			c-1.414,0.317-2.75,0.708-4.005,1.18c-1.885,0.63-3.692,1.533-5.419,2.713c-1.73,1.18-3.298,2.558-4.712,4.129
			c-1.101-2.986-2.79-5.15-5.065-6.488c-2.279-1.334-4.675-2.005-7.186-2.005c-0.158,0-0.276,0-0.353,0c-0.081,0-0.199,0-0.353,0
			c-3.457,0.159-6.597,1.456-9.424,3.893c-2.827,2.44-4.241,5.78-4.241,10.026h6.832c0-1.257,0.272-2.396,0.825-3.421
			c0.549-1.021,1.296-1.847,2.238-2.477c0.155,0,0.236-0.077,0.236-0.236h0.236c0.155,0,0.313,0,0.471,0
			c0,0.159,0.077,0.317,0.236,0.472c0.155,0.159,0.313,0.236,0.471,0.236c0,0.159,0,0.317,0,0.472v44.116h16.256V81.721
			c0.313-1.57,0.942-3.067,1.885-4.482c0.942-1.415,2.039-2.672,3.298-3.775c0.155-0.155,0.471-0.431,0.942-0.826
			c0.471-0.391,1.02-0.745,1.649-1.062c0.155-0.155,0.272-0.273,0.353-0.354c0.077-0.077,0.195-0.118,0.353-0.118
			c0.626-0.472,1.255-0.903,1.885-1.298c0.626-0.391,1.02-0.509,1.178-0.354c0.313-0.155,0.589-0.236,0.825-0.236
			c0.236,0,0.431,0,0.589,0c1.097,0,2.08,0.276,2.945,0.826c0.861,0.553,1.296,1.456,1.296,2.713v27.838
			c0,3.933,1.373,7.236,4.123,9.908c2.746,2.676,6.008,4.01,9.777,4.01c3.77,0,7.027-1.334,9.777-4.01
			c2.746-2.672,4.123-5.975,4.123-9.908h-6.832C160.41,100.911,160.369,101.302,160.292,101.774z M225.788,101.774
			c-0.081,0.472-0.276,1.025-0.589,1.651c-0.158,0.789-0.512,1.533-1.06,2.241c-0.552,0.708-1.141,1.062-1.767,1.062
			c-0.471,0-0.747-0.077-0.825-0.236c-0.081-0.155-0.118-0.391-0.118-0.708v-0.236V76.295c0-2.201-0.471-4.206-1.414-6.016
			c-0.942-1.806-2.201-3.34-3.77-4.6c-1.572-1.257-3.339-2.241-5.301-2.949c-1.966-0.708-3.968-1.062-6.008-1.062
			c-1.414,0-2.827,0.159-4.241,0.472c-1.414,0.317-2.75,0.708-4.005,1.18c-1.885,0.63-3.692,1.533-5.419,2.713
			c-1.73,1.18-3.298,2.558-4.712,4.129c-1.101-2.986-2.79-5.15-5.065-6.488c-2.279-1.334-4.675-2.005-7.186-2.005
			c-0.158,0-0.276,0-0.353,0c-0.081,0-0.199,0-0.353,0c-3.457,0.159-6.597,1.456-9.424,3.893c-2.827,2.44-4.241,5.78-4.241,10.026
			h6.832c0-1.257,0.272-2.396,0.825-3.421c0.549-1.021,1.296-1.847,2.238-2.477c0.155,0,0.236-0.077,0.236-0.236h0.236
			c0.155,0,0.313,0,0.471,0c0,0.159,0.077,0.317,0.236,0.472c0.155,0.159,0.313,0.236,0.471,0.236c0,0.159,0,0.317,0,0.472v44.116
			h16.256V81.721c0.313-1.57,0.942-3.067,1.885-4.482c0.942-1.415,2.039-2.672,3.298-3.775c0.155-0.155,0.471-0.431,0.942-0.826
			c0.471-0.391,1.02-0.745,1.649-1.062c0.155-0.155,0.272-0.273,0.353-0.354c0.077-0.077,0.195-0.118,0.353-0.118
			c0.626-0.472,1.255-0.903,1.885-1.298c0.626-0.391,1.02-0.509,1.178-0.354c0.313-0.155,0.589-0.236,0.825-0.236s0.431,0,0.589,0
			c1.097,0,2.08,0.276,2.945,0.826c0.861,0.553,1.296,1.456,1.296,2.713v27.838c0,3.933,1.373,7.236,4.123,9.908
			c2.746,2.676,6.008,4.01,9.777,4.01c3.77,0,7.027-1.334,9.777-4.01c2.746-2.672,4.123-5.975,4.123-9.908h-6.832
			C225.906,100.911,225.865,101.302,225.788,101.774z M271.021,105.076c-2.437,1.416-4.988,2.282-7.657,2.595
			c-0.158,0-0.276,0-0.353,0c-0.081,0-0.199,0-0.353,0c-2.043,0.159-3.652-0.509-4.83-2.005c-1.178-1.493-2.161-3.185-2.945-5.072
			c-0.158-0.627-0.353-1.257-0.589-1.887c-0.236-0.627-0.434-1.257-0.589-1.887l0.707-0.236c1.097-0.313,2.275-0.667,3.534-1.062
			c1.255-0.391,2.511-0.826,3.77-1.297c4.395-1.57,8.364-3.812,11.898-6.724c3.534-2.908,5.301-6.724,5.301-11.442
			c0-0.155,0-0.313,0-0.472c0-0.155,0-0.313,0-0.472c0-0.155,0-0.313,0-0.472c0-0.155,0-0.313,0-0.472
			c-0.63-4.401-2.632-7.549-6.008-9.437c-3.379-1.887-7.108-2.908-11.191-3.067c-0.158,0-0.276,0-0.353,0c-0.081,0-0.199,0-0.353,0
			c-8.169,0.159-14.806,2.912-19.908,8.257c-5.106,5.349-7.738,11.482-7.893,18.401c0,3.303,0.666,6.569,2.003,9.79
			c1.333,3.225,3.416,6.174,6.243,8.847c2.356,2.204,4.907,3.933,7.657,5.19c2.746,1.261,5.537,2.046,8.364,2.359
			c0.471,0.159,0.942,0.236,1.414,0.236s0.942,0,1.414,0c4.082,0,8.088-0.903,12.015-2.713c3.924-1.806,7.304-4.442,10.131-7.903
			l-5.183-4.246C275.534,101.932,273.454,103.661,271.021,105.076z M252.526,89.624c0-0.077,0-0.195,0-0.354
			c0-1.098,0.077-2.396,0.236-3.893c0.155-1.493,0.471-3.026,0.942-4.6c0.626-2.986,1.727-5.739,3.298-8.257
			c1.568-2.514,3.611-3.775,6.126-3.775c0.313,0,0.666,0,1.06,0c0.39,0,0.744,0.081,1.06,0.236c1.568,0.158,3.063,0.708,4.476,1.651
			s2.198,2.359,2.356,4.246c0,0.159,0,0.317,0,0.472c0,0.159,0,0.317,0,0.472c0,2.831-1.178,5.19-3.534,7.077
			s-5.029,3.384-8.01,4.482c-1.414,0.63-2.827,1.143-4.241,1.533c-1.414,0.394-2.673,0.748-3.77,1.062
			C252.526,89.823,252.526,89.705,252.526,89.624z M339.106,104.03c-0.552,1.146-1.296,2.046-2.238,2.698
			c-0.158,0.159-0.276,0.236-0.353,0.236c-0.081,0-0.199-0.077-0.353-0.236c-0.317,0-0.552-0.118-0.707-0.354
			c-0.158-0.236-0.236-0.431-0.236-0.59c0-3.163,0-6.289,0-9.378c0-3.085,0-6.211,0-9.378c0-3.008,0-6.093,0-9.26
			c0-3.163,0-6.252,0-9.26h10.838v-6.842h-10.838V22.034h-16.256v39.634h-4.24h-2.357h-8.48V22.034h-16.256v39.634h-6.597v6.842
			h6.597v32.084c0,4,1.373,7.358,4.123,10.078c2.746,2.72,6.008,4.077,9.777,4.077s7.027-1.357,9.777-4.077
			c2.746-2.72,4.123-6.078,4.123-10.078h-6.832c0,1.146-0.276,2.293-0.825,3.435c-0.552,1.146-1.296,2.046-2.238,2.698
			c-0.158,0.159-0.276,0.236-0.353,0.236c-0.081,0-0.199-0.077-0.353-0.236c-0.317,0-0.552-0.118-0.707-0.354
			c-0.158-0.236-0.236-0.431-0.236-0.59c0-3.163,0-6.289,0-9.378c0-3.085,0-6.211,0-9.378c0-3.008,0-6.093,0-9.26
			c0-3.163,0-6.252,0-9.26h8.48h2.357h4.24v32.084c0,4,1.373,7.358,4.123,10.078c2.746,2.72,6.008,4.077,9.777,4.077
			c3.77,0,7.027-1.357,9.777-4.077c2.746-2.72,4.123-6.078,4.123-10.078h-6.832C339.93,101.741,339.654,102.887,339.106,104.03z
			 M394.822,99.886c-1.73,2.046-3.81,3.775-6.243,5.19c-2.437,1.416-4.988,2.282-7.657,2.595c-0.158,0-0.276,0-0.353,0
			c-0.081,0-0.199,0-0.353,0c-2.043,0.159-3.652-0.509-4.83-2.005c-1.178-1.493-2.161-3.185-2.945-5.072
			c-0.158-0.627-0.353-1.257-0.589-1.887c-0.236-0.627-0.434-1.257-0.589-1.887l0.707-0.236c1.097-0.313,2.275-0.667,3.534-1.062
			c1.255-0.391,2.51-0.826,3.77-1.297c4.395-1.57,8.364-3.812,11.898-6.724c3.534-2.908,5.301-6.724,5.301-11.442
			c0-0.155,0-0.313,0-0.472c0-0.155,0-0.313,0-0.472c0-0.155,0-0.313,0-0.472c0-0.155,0-0.313,0-0.472
			c-0.629-4.401-2.632-7.549-6.008-9.437c-3.379-1.887-7.108-2.908-11.191-3.067c-0.158,0-0.276,0-0.353,0c-0.081,0-0.199,0-0.353,0
			c-8.169,0.159-14.806,2.912-19.908,8.257c-5.106,5.349-7.738,11.482-7.892,18.401c0,3.303,0.666,6.569,2.003,9.79
			c1.333,3.225,3.416,6.174,6.243,8.847c2.356,2.204,4.907,3.933,7.657,5.19c2.746,1.261,5.537,2.046,8.364,2.359
			c0.471,0.159,0.942,0.236,1.414,0.236c0.471,0,0.942,0,1.414,0c4.082,0,8.088-0.903,12.015-2.713
			c3.924-1.806,7.304-4.442,10.131-7.903L394.822,99.886z M370.084,89.624c0-0.077,0-0.195,0-0.354c0-1.098,0.077-2.396,0.236-3.893
			c0.155-1.493,0.471-3.026,0.942-4.6c0.626-2.986,1.726-5.739,3.298-8.257c1.568-2.514,3.611-3.775,6.126-3.775
			c0.313,0,0.666,0,1.06,0c0.39,0,0.744,0.081,1.06,0.236c1.568,0.158,3.063,0.708,4.476,1.651c1.414,0.944,2.198,2.359,2.356,4.246
			c0,0.159,0,0.317,0,0.472c0,0.159,0,0.317,0,0.472c0,2.831-1.178,5.19-3.534,7.077s-5.029,3.384-8.01,4.482
			c-1.414,0.63-2.827,1.143-4.241,1.533c-1.414,0.394-2.673,0.748-3.77,1.062C370.084,89.823,370.084,89.705,370.084,89.624z"/>
	</g>
</g>
<g id="L">
	<g>
		<path fill-rule="evenodd" clip-rule="evenodd" fill="#FBA07C" d="M150.123,131.428c-0.142,0.707-0.391,1.344-0.742,1.911
			c-0.354,0.564-0.673,1.131-0.954,1.699c-1.839,3.536-4.383,6.051-7.633,7.537c-3.253,1.486-6.928,2.229-11.026,2.229
			c-3.678,0-7.739-0.531-12.192-1.592c-4.453-1.062-9.084-2.442-13.888-4.14c-6.222-2.266-12.298-4.777-18.235-7.538
			c-5.937-2.76-11.805-5.484-17.599-8.174c-0.567-0.282-1.097-0.531-1.59-0.743c-0.497-0.212-0.954-0.458-1.378-0.743
			c-3.677-1.699-7.352-3.43-11.026-5.202c-3.677-1.768-7.352-3.43-11.026-4.99c2.26-3.679,3.992-7.783,5.195-12.315
			c1.199-4.529,1.802-9.269,1.802-14.226c0-8.775,0-17.623,0-26.54c0-8.918,0-17.835,0-26.753c0-0.707,0-1.38,0-2.017
			c0-0.637,0.07-1.307,0.212-2.017c0.563-5.378,2.226-10.298,4.983-14.756S62.197,6.3,68.276,6.157h0.212
			c0.563,0,1.166,0.036,1.802,0.106c0.636,0.073,1.236,0.179,1.802,0.318c3.532,0.849,6.712,2.584,9.542,5.202
			c2.826,2.621,4.31,5.769,4.453,9.448c0,0.425-0.036,0.886-0.106,1.38c-0.073,0.498-0.179,1.028-0.318,1.592
			c-0.709-1.274-1.557-2.299-2.544-3.079c-0.991-0.776-2.051-1.38-3.181-1.805c-0.285-0.139-0.636-0.246-1.06-0.318
			c-0.424-0.07-0.848-0.106-1.272-0.106c-1.839,0-3.429,0.531-4.771,1.592c-1.345,1.062-2.014,2.515-2.014,4.353
			c0,0.992,0.176,2.017,0.53,3.079c0.351,1.062,1.024,2.16,2.014,3.291c0.848,0.992,1.729,1.805,2.651,2.442
			c0.918,0.637,1.872,1.028,2.862,1.168c0.282,0.143,0.6,0.212,0.954,0.212c0.351,0,0.669,0,0.954,0
			c2.826,0.143,5.407-1.062,7.739-3.609c2.332-2.548,3.499-5.59,3.499-9.13c0-7.076-2.65-12.56-7.951-16.455
			C78.772,1.947,72.941,0,66.58,0c-9.19,0-16.433,3.434-21.734,10.298c-5.301,6.867-8.66,14.474-10.072,22.825
			c-0.285,1.417-0.497,2.903-0.636,4.459c-0.142,1.559-0.212,3.046-0.212,4.459c0,8.354,0,16.74,0,25.16c0,8.423,0,16.88,0,25.373
			c0,2.833-0.142,5.52-0.424,8.068c-0.285,2.548-0.779,4.883-1.484,7.007c-3.111-1.131-6.043-2.017-8.8-2.654
			c-2.757-0.637-5.337-0.955-7.739-0.955c-0.142,0-0.285,0-0.424,0c-0.143,0-0.248,0-0.318,0c-0.073,0-0.179,0-0.318,0
			c-4.807,0.143-8.375,1.629-10.708,4.459c-2.332,2.833-3.572,5.875-3.711,9.13c0,3.115,1.166,5.945,3.499,8.493
			c2.332,2.548,5.758,3.822,10.284,3.822c4.804-0.143,9.363-1.274,13.676-3.397c4.31-2.123,8.021-5.096,11.132-8.918
			c3.817,1.841,7.773,3.822,11.874,5.945c4.098,2.123,8.269,4.316,12.51,6.582c2.544,1.413,5.546,3.112,9.012,5.096
			c3.462,1.981,7.173,4.034,11.132,6.157c3.532,1.699,7.209,3.43,11.026,5.202c3.817,1.768,7.633,3.361,11.45,4.777
			c3.817,1.274,7.633,2.336,11.45,3.185c3.817,0.849,7.491,1.274,11.026,1.274c5.795,0,10.99-1.38,15.585-4.14
			c4.592-2.76,8.021-7.468,10.284-14.119c0.424-0.992,0.706-1.699,0.848-2.123c0.139-0.425,0.212-0.849,0.212-1.274
			c0-0.143,0.07-0.212,0.212-0.212c0-0.143,0-0.285,0-0.425L150.123,131.428z M23.218,120.918c-2.757,2.054-5.974,3.079-9.648,3.079
			c-2.12,0-3.89-0.601-5.301-1.805c-1.415-1.201-2.12-2.724-2.12-4.565c0-0.282,0-0.531,0-0.743c0-0.212,0.07-0.458,0.212-0.743
			c0-0.282,0.033-0.531,0.106-0.743c0.07-0.212,0.176-0.458,0.318-0.743c0.706-1.699,1.872-2.866,3.499-3.503
			c1.623-0.637,3.426-0.955,5.407-0.955c0.563,0,1.166,0.036,1.802,0.106c0.636,0.073,1.236,0.106,1.802,0.106
			c1.272,0.285,2.508,0.531,3.711,0.743c1.199,0.212,2.296,0.531,3.287,0.955c0.706,0.143,1.378,0.318,2.014,0.531
			s1.166,0.391,1.59,0.531C28.201,116.284,25.975,118.868,23.218,120.918z"/>
	</g>
</g>
</svg>
