<?xml version="1.0" encoding="utf-8"?>
<!-- Generator: Adobe Illustrator 18.0.0, SVG Export Plug-In . SVG Version: 6.00 Build 0)  -->
<!DOCTYPE svg PUBLIC "-//W3C//DTD SVG 1.1//EN" "http://www.w3.org/Graphics/SVG/1.1/DTD/svg11.dtd">
<svg version="1.1" id="Layer_3" xmlns="http://www.w3.org/2000/svg" xmlns:xlink="http://www.w3.org/1999/xlink" x="0px" y="0px"
	 viewBox="0 0 60 24" enable-background="new 0 0 60 24" xml:space="preserve">
<path fill="#fba07c" d="M5.7379,14.3916c0.1091-0.4113,0.3148-0.7815,0.6168-1.1106l1.1107-1.3574
	c0.0546-0.0548,0.0887-0.1094,0.1029-0.1646c0.0135-0.0546,0.0339-0.1094,0.0617-0.1644c0.027-0.0824,0.1779-0.3016,0.4524-0.6583
	c0.274-0.3561,0.5689-0.7469,0.8844-1.1724c0.315-0.4247,0.617-0.8289,0.905-1.2134c0.288-0.3836,0.473-0.6439,0.5554-0.7814
	c0.0268-0.0548,0.0887-0.144,0.185-0.2675c0.0956-0.1234,0.2057-0.2531,0.329-0.3907c0.1234-0.137,0.247-0.2674,0.3703-0.3908
	c0.1234-0.1232,0.2121-0.2119,0.2671-0.2672l0.823-0.7406l0.946-0.6581c0.1094-0.0822,0.288-0.1709,0.5347-0.2674
	c0.2467-0.0957,0.5482-0.1644,0.9048-0.2057c0.3563-0.0411,0.761-0.0135,1.2137,0.0823c0.4524,0.0964,0.9254,0.3085,1.419,0.6375
	c0.6303,0.5759,1.0488,1.1998,1.2547,1.8714c0.2054,0.6723,0.3354,1.1865,0.3905,1.5426c0.0548,0.2744,0.0683,0.5347,0.0413,0.7815
	c-0.0275,0.2468-0.0688,0.5077-0.1234,0.7814l-0.1646,0.7405c-0.1098,0.3844-0.2332,0.775-0.3701,1.1724
	c-0.1376,0.3978-0.2745,0.7887-0.4113,1.1722c-0.1376,0.4113-0.2745,0.8225-0.4113,1.234c-0.1376,0.4114-0.261,0.8226-0.3703,1.234
	c-0.0553,0.329-0.1234,0.6582-0.2057,0.9872c-0.0823,0.329-0.1509,0.6582-0.2054,0.9872c-0.0278,0.1644-0.0619,0.343-0.103,0.5346
	c-0.041,0.1923-0.0191,0.4846,0.0309,1.0039c0.0163,0.1688,0.0989,0.4493,0.1542,0.6414c0.027,0.137,0.1369,0.2056,0.329,0.2056
	c0.1646-0.0822,0.4513-0.2172,0.5337-0.3266l0.7827-0.7428c0.2467-0.2192,0.4659-0.4384,0.658-0.6582
	c0.1917-0.2192,0.3836-0.466,0.576-0.7405c0.2192-0.3014,0.432-0.6028,0.6374-0.9048c0.2057-0.3016,0.391-0.603,0.5553-0.905
	l1.1107-2.0567c0.0823-0.1369,0.3229-0.5972,0.5448-0.8534c0.4086-0.4721,0.2816,0.3095,0.3369,0.172
	c0.0546-0.1369,0.3622-0.2266,0.4855-0.172c0.1234,0.0553,0.0501,0.4692-0.0047,0.6061c-0.0823,0.1645-0.131,0.3322-0.2816,0.7158
	c-0.1509,0.3844-0.8136-0.05-1.0193,0.3749c-0.2057,0.4255-0.4185,0.8432-0.6377,1.2545c-0.2197,0.4112-0.4111,0.7404-0.5757,0.9872
	l-0.2467,0.2878c-0.1378,0.2198-0.3364,0.4873-0.5966,0.8022c-0.2607,0.3156-0.5418,0.6374-0.8431,0.9665
	c-0.3022,0.329-0.6106,0.6441-0.9257,0.946c-0.3155,0.3014-0.5693,0.5348-0.761,0.6992c-0.1644,0.137-0.3359,0.2192-0.514,0.2468
	c-0.1786,0.0271-0.3639,0.0412-0.5554,0.0412c-0.3843-0.0553-0.9628-0.3216-1.2366-0.5955
	c-0.0821-0.0553-0.5051-0.6249-0.6145-0.8441c-0.1098-0.2199-0.2057-0.4589-0.2878-0.7198
	c-0.0823-0.2604-0.1101-0.5411-0.0823-0.8432c0.027-0.4661,0.0681-0.9185,0.1234-1.3574c0.0545-0.4384,0.1504-0.8638,0.288-1.2752
	c0.0821-0.3014,0.1573-0.5824,0.2261-0.8432c0.0683-0.2603,0.1575-0.5412,0.2676-0.8432c0.0821-0.3562,0.1779-0.6718,0.2877-0.946
	l0.7406-2.0979c0.0821-0.1915,0.1501-0.3767,0.2054-0.5553c0.0548-0.178,0.1093-0.3766,0.1646-0.5964
	c0.0545-0.1092,0.0956-0.2056,0.1233-0.2879c0.027-0.0823,0.0683-0.1915,0.1236-0.3291c0.0268-0.1369,0.0546-0.2944,0.0821-0.473
	c0.027-0.178,0.041-0.3632,0.041-0.5552c0.0548-0.329,0.0958-0.6646,0.1234-1.0078c0.0273-0.3425-0.055-0.6786-0.2465-1.0077
	c-0.0826-0.1915-0.2266-0.329-0.432-0.4115c-0.2057-0.0822-0.4185-0.1644-0.6377-0.2466c-0.3568-0.1915-0.7546-0.2122-1.1927-0.0618
	c-0.4391,0.151-0.8573,0.3638-1.2547,0.6375c-0.3978,0.2745-0.734,0.5418-1.0077,0.802c-0.2745,0.2611-0.4389,0.4185-0.4937,0.473
	c-0.0553,0.0553-0.1509,0.1789-0.288,0.3702c-0.1376,0.1923-0.288,0.4051-0.4524,0.6377c-0.1646,0.2332-0.3226,0.4524-0.473,0.6582
	c-0.1509,0.2056-0.2673,0.3496-0.3497,0.4319c-0.0551,0.0554-0.144,0.1645-0.2673,0.3291C9.8717,9.5378,9.7341,9.723,9.5837,9.9286
	c-0.1509,0.2058-0.2949,0.3978-0.432,0.576c-0.1374,0.1785-0.2332,0.3084-0.2877,0.3906c-0.1646,0.2199-0.3158,0.4391-0.4524,0.6582
	c-0.1376,0.2199-0.288,0.4391-0.4526,0.6581c-0.1922,0.2199-0.3772,0.4526-0.5554,0.6995c-0.1786,0.2467-0.3637,0.48-0.5553,0.6992
	c-0.1374,0.1375-0.2467,0.295-0.329,0.473c-0.0821,0.1787-0.1787,0.3495-0.288,0.5142c-0.1374,0.329-0.2878,0.5899-0.4524,0.7814
	c-0.1374,0.2199-0.2813,0.432-0.4317,0.6376c-0.1511,0.2056-0.2816,0.4184-0.3909,0.6375c-0.0823,0.1099-0.185,0.2745-0.3084,0.4937
	c-0.1236,0.2198-0.2469,0.4524-0.3703,0.6992c-0.1233,0.2467-0.2403,0.4731-0.3497,0.6787
	c-0.1099,0.2057-0.1787,0.3638-0.2057,0.473c-0.1098,0.3014-0.2197,0.6028-0.329,0.9049c-0.1099,0.3015-0.1922,0.6305-0.2467,0.9872
	c0,0.0271-0.0071,0.0477-0.0206,0.0618c-0.0143,0.0135-0.0207,0.0476-0.0207,0.1028c-0.1376,0.3015-0.2261,0.6233-0.2673,0.9666
	c-0.041,0.3426-0.0757,0.6922-0.1027,1.049c0,0.2192-0.1098,0.3702-0.3293,0.4524c-0.1919,0.137-0.4047,0.2057-0.6374,0.2057
	c-0.2334,0-0.4595,0-0.6787,0c-0.1099,0-0.2128-0.0071-0.3084-0.0206c-0.0966-0.0141-0.1993-0.048-0.3086-0.1028
	c-0.2197-0.0276-0.343-0.1375-0.3703-0.329c-0.1366-0.4114-0.1366-0.8368,0-1.2752c0.0548-0.2197,0.1165-0.4317,0.1853-0.6375
	c0.0681-0.2057,0.1162-0.4183,0.144-0.6374l0.1234-0.2468v-0.0822c0-0.0277,0.0135-0.0413,0.0413-0.0413
	c0.0546-0.3291,0.1231-0.6445,0.2054-0.9459c0.0823-0.3016,0.1782-0.603,0.288-0.905l0.576-1.7277
	c0.1369-0.4659,0.2671-0.9184,0.3907-1.3574c0.1233-0.4383,0.2531-0.8907,0.3907-1.3574c0.0548-0.1367,0.1027-0.2737,0.144-0.4112
	c0.0413-0.137,0.0887-0.2738,0.144-0.4113c0.1094-0.4115,0.2192-0.8227,0.3291-1.234c0.1093-0.4112,0.2327-0.8362,0.3701-1.2751
	c0.2192-0.7404,0.4661-1.4256,0.7406-2.0566c0.0268-0.1093,0.0474-0.1988,0.0614-0.2676C4.25,8.3387,4.2569,8.2628,4.2569,8.1804
	l0.288-0.8638C4.6818,6.933,4.8054,6.5628,4.9152,6.2062c0.1094-0.3561,0.2327-0.7264,0.3701-1.1106
	c0.0823-0.1646,0.144-0.3973,0.185-0.6995C5.5116,4.0948,5.518,3.8068,5.491,3.5326C5.4634,3.2587,5.3946,3.0388,5.2853,2.8744
	C5.1754,2.7098,4.9973,2.6828,4.7508,2.792c-0.1101,0.0553-0.2266,0.0895-0.3499,0.103C4.2776,2.909,4.1748,2.9566,4.0925,3.0388
	c-0.1376,0.0553-0.2951,0.144-0.473,0.2676C3.4409,3.4296,3.3379,3.5054,3.3109,3.5326C3.1465,3.5879,3.016,3.7041,2.9202,3.882
	c-0.0963,0.1789-0.185,0.3363-0.2673,0.4732C2.5976,4.4375,2.543,4.5133,2.4885,4.5813C2.4331,4.6503,2.3784,4.7252,2.3238,4.8076
	c-0.0823,0.1375-0.1718,0.144-0.2673,0.0205C1.9602,4.7048,1.9395,4.6296,1.9948,4.602c0.1093-0.2468,0.2327-0.4865,0.3701-0.72
	c0.1371-0.2326,0.315-0.4317,0.5349-0.5964c0-0.0269,0.0956-0.1028,0.2878-0.2262C3.3792,2.936,3.6052,2.8062,3.8662,2.6686
	c0.2602-0.1368,0.5482-0.2468,0.8639-0.329c0.3148-0.0822,0.6097-0.0822,0.8841,0c0.3563,0.0822,0.6583,0.3156,0.905,0.6992
	C6.7385,3.2856,6.9235,3.5672,7.0746,3.882C7.225,4.1976,7.3007,4.6296,7.3007,5.1778C7.2454,5.4246,7.2115,5.6651,7.1982,5.8977
	C7.184,6.1308,7.1498,6.3571,7.0953,6.5762C7.04,6.7962,6.9989,7.0082,6.9717,7.214C6.9442,7.4195,6.9029,7.6322,6.8483,7.8514
	c-0.0553,0.2468-0.117,0.48-0.185,0.6992c-0.0688,0.2199-0.1305,0.439-0.185,0.6582l-0.7816,2.7971l-0.5757,1.9744l-0.7406,2.5092
	l0.6583-0.9872c0.1646-0.2468,0.315-0.4795,0.4524-0.6995C5.6278,14.5838,5.7104,14.4469,5.7379,14.3916z"/>
<path fill="#fba07c" d="M22.8268,12.8483c0.5207,0.0553,0.946,0.2198,1.2751,0.4937c0.0823,0.2744,0.0823,0.5488,0,0.8227
	c0,0.1375-0.0069,0.261-0.0204,0.3701c-0.0142,0.11-0.0349,0.2199-0.0617,0.3291c-0.0823,0.4112-0.2057,0.8093-0.3703,1.1929
	c-0.1646,0.3843-0.3155,0.768-0.4524,1.1516c-0.1921,0.4391-0.3155,0.8504-0.3703,1.234l-0.2054,0.617
	c-0.0278,0.2198-0.0908,0.4477-0.118,0.6256c-0.0275,0.1789-0.0594,0.3291-0.0879,0.5262
	c-0.0241,0.1663,0.1318,0.2341,0.1645,0.2547c0.0796,0.0501,0.1505,0.0331,0.2881,0.0331c0.2737-0.0545,0.5205-0.1368,0.7404-0.2466
	c0.2467-0.137,0.507-0.281,0.7814-0.432c0.2737-0.1504,0.5207-0.322,0.7404-0.5141c0.1093-0.0547,0.4384-0.3562,0.4937-0.4113
	c0.3838-0.3562,1.0166-0.9336,1.3939-1.3169c0.7093-0.7205,1.4735-1.4559,1.7915-1.8152c1.4498-1.6384,2.3874-2.3632,2.5658-2.7065
	c0.1782-0.3426,0.3086-0.5964,0.3909-0.761c0.1093-0.1916,0.2057-0.2466,0.288-0.1644c0.0821,0.0822,0.0956,0.1787,0.041,0.288
	c-0.0823,0.1644-0.2057,0.4182-0.3701,0.761c-0.1646,0.343-1.4616,1.6194-2.489,2.7361c-0.3045,0.3307-1.2084,1.2362-1.735,1.8152
	l-1.4853,1.3958c-0.2197,0.2199-0.5016,0.4811-0.7208,0.6726c-0.2199,0.1923-0.905,0.576-0.905,0.576
	c-0.3565,0.2468-0.7544,0.4255-1.1928,0.5347c-0.1098,0.0276-0.2128,0.0412-0.3084,0.0412c-0.0966,0-0.1853,0-0.2674,0
	c-0.3022-0.0545-0.5485-0.1297-0.7406-0.2262c-0.1914-0.0958-0.3971-0.2398-0.617-0.432c-0.3836-0.2737-0.5757-0.6439-0.5757-1.1107
	c-0.0548-0.4112-0.0135-0.8083,0.1233-1.1927c0.0823-0.137,0.1376-0.2809,0.1646-0.4319c0.0275-0.1505,0.0688-0.3086,0.1233-0.473
	l0.6991-1.7687c0.1101-0.3015,0.2199-0.61,0.3292-0.9255c0.1093-0.3149,0.2192-0.6234,0.329-0.9255
	c0.0546-0.1094,0.1027-0.2192,0.144-0.3291C22.6417,13.027,22.7169,12.9307,22.8268,12.8483z M24.3105,10.5001
	c0.302-0.0042,0.3944,0.0591,0.6143,0.2506c0.0268,0,0.0681,0.041,0.1234,0.1232c0.1914,0.3022,0.1504,0.5078-0.1234,0.617
	c-0.1924,0.0554-0.3433,0.0554-0.4526,0c-0.0823-0.0822-0.1715-0.1439-0.2673-0.185c-0.0963-0.0411-0.2108-0.2088-0.2229-0.3072
	C23.9382,10.6428,24.2016,10.5016,24.3105,10.5001z"/>
<path fill="#fba07c" d="M33.1251,17.6129c0.0545,0.0553,0.1575,0.2332,0.3084,0.5347c0.1506,0.302,0.3293,0.6034,0.5349,0.9049
	c0.2054,0.3021,0.4113,0.5555,0.617,0.761c0.2054,0.2057,0.3907,0.2403,0.5553,0.1028c0.1914-0.1916,0.3836-0.3702,0.5757-0.5348
	c0.1917-0.1644,0.7057-0.6992,0.802-0.7814c0.0958-0.0823,1.4603-1.4398,1.4603-1.4398c0.0823-0.1091,0.9111-1.1722,1.0898-1.46
	c0.1781-0.288,0.3767-0.5824,0.5966-0.8846c0.0823-0.1368,0.1779-0.185,0.288-0.1439c0.1091,0.041,0.1369,0.1439,0.0821,0.3085
	c-0.0553,0.0822-0.1098,0.1786-0.1644,0.288c-0.0553,0.1098-0.1101,0.2055-0.1646,0.288c-0.1646,0.192-0.4208,0.6579-0.5854,0.8768
	c-0.1374,0.2199-0.642,0.7684-0.7926,0.933c-0.1509,0.1645-0.6405,0.6831-0.8484,0.9252c-0.2539,0.2957-0.667,0.7067-0.9407,0.9259
	c-0.1099,0.1098-0.2538,0.2608-0.432,0.4524c-0.1786,0.1923-0.3772,0.3908-0.5964,0.5965
	c-0.2197,0.2056-0.4389,0.3772-0.6581,0.5142c-0.2199,0.1375-0.4256,0.192-0.617,0.1644c-0.3022-0.0546-0.5429-0.2078-0.7817-0.3908
	c-0.6373-0.4886-1.0559-1.2813-1.1107-1.4189l-0.4524-0.8227c-0.1374-0.137-0.2197-0.2327-0.2467-0.288
	c-0.0823,0.0822-0.1511,0.3156-0.2057,0.6992c-0.0553,0.3844-0.0823,0.617-0.0823,0.6993
	c-0.0278,0.2199-0.0823,0.3703-0.1644,0.4525c-0.0823,0.0822-0.2334,0.151-0.4526,0.2055c-0.4113,0.0276-0.7404-0.0822-0.9873-0.329
	c-0.1098-0.1091-0.2118-0.1986-0.3084-0.2673c-0.0958-0.0681-0.212-0.144-0.3497-0.2262c-0.1369-0.1093-0.1779-0.2737-0.1233-0.4937
	c0.0278-0.2467,0.0619-0.5411,0.1029-0.8843c0.041-0.3426,0.0963-0.6922,0.1644-1.0489c0.0688-0.356,0.1305-0.6992,0.185-1.0284
	c0.0553-0.329,0.0966-0.617,0.1236-0.8636l0.2054-0.8228c0.1094-0.3836,0.1988-0.761,0.2676-1.1312
	c0.0681-0.3701,0.144-0.7468,0.2263-1.1311l0.4111-1.5632c0.1371-0.3014,0.3233-0.9369,0.6583-1.8098
	c0,0,0.6028-1.275,0.7404-1.5219l0.6993-1.3162c0.0545-0.1092,0.1162-0.2193,0.185-0.3292c0.0681-0.1091,0.1297-0.2056,0.185-0.2878
	c0.1369-0.3291,0.3015-0.6375,0.4937-0.9255c0.1914-0.2879,0.3971-0.5687,0.617-0.8432c0.1646-0.2192,0.3425-0.4249,0.5347-0.617
	c0.1917-0.1916,0.3836-0.3972,0.576-0.617c0.2467-0.2737,0.5276-0.5142,0.8431-0.7198c0.315-0.2056,0.6234-0.4177,0.9254-0.6375
	c0.4113-0.329,0.932-0.4525,1.5633-0.3701c0.1091,0.0276,0.2118,0.0553,0.3084,0.0822c0.0958,0.0277,0.2121,0.0553,0.3497,0.0822
	c0.329,0.0822,0.6305,0.2745,0.905,0.5759c0.1366,0.1921,0.2327,0.3774,0.2877,0.5553c0.0548,0.1787,0.0958,0.3638,0.1234,0.5552
	c0.0548,0.3021,0.0681,0.5831,0.0413,0.8432c-0.0278,0.2611-0.0553,0.5283-0.0823,0.8022c-0.0823,0.6857-0.261,1.3027-0.5347,1.851
	c-0.0278,0.0553-0.0966,0.1921-0.2057,0.4112c-0.1101,0.2199-0.2406,0.4668-0.3907,0.7405
	c-0.1511,0.2743-0.3157,0.5418-0.4937,0.8022c-0.1786,0.2608-0.3497,0.473-0.5143,0.6374c-0.2745,0.1923-0.5212,0.3978-0.7404,0.617
	c-0.2199,0.2198-0.4389,0.439-0.658,0.6582c-0.1646,0.1375-0.3227,0.2815-0.473,0.432c-0.1509,0.1509-0.3226,0.2949-0.5141,0.4319
	c-0.0553,0.0553-0.103,0.1098-0.144,0.1644c-0.0413,0.0554-0.1029,0.0964-0.185,0.1236c-0.2199,0.192-0.4391,0.3772-0.6583,0.5552
	c-0.2199,0.1786-0.4666,0.3495-0.7404,0.5142c-0.2745,0.2197-0.5625,0.4112-0.8637,0.5759
	c-0.3022,0.1645-0.5428,0.4012-0.8227,0.5757c-0.1646,0.1027-0.2803,0.1734-0.2803,0.1734s-0.0943,0.7347-0.2318,1.1944
	c0.0392-0.1311,0.3403-0.2572,0.6558-0.4218c0.3153-0.1644,0.6647-0.3084,1.049-0.4319c0.3836-0.1233,0.788-0.1914,1.2134-0.2056
	c0.4251-0.0135,0.802,0.0892,1.1313,0.3084c0.1369,0.1098,0.3219,0.2334,0.5551,0.3702c0.2327,0.1377,0.3086,0.3567,0.2266,0.6582
	c-0.0826,0.2199-0.2406,0.4185-0.4733,0.5965c-0.2332,0.1786-0.4937,0.3495-0.7814,0.5142c-0.288,0.1644-0.576,0.3226-0.8637,0.473
	c-0.288,0.151-0.5283,0.3084-0.72,0.473l-0.7404,0.6992c-0.0553,0.0276-0.1027,0.0758-0.144,0.144
	C33.228,17.4966,33.1796,17.5583,33.1251,17.6129z M31.6854,16.7491c0.3015-0.2468,0.5895-0.4795,0.864-0.6993
	c0.2737-0.2192,0.5617-0.4384,0.8637-0.6581c0.219-0.1645,0.5494-0.3537,0.9873-0.576c1.2688-0.644,1.1239-0.9318,1.0694-0.9872
	c-0.1646-0.1367-0.4185-0.1915-0.761-0.1644c-0.3433,0.0277-0.6929,0.1169-1.049,0.2674c-0.3568,0.151-0.6993,0.3497-1.0283,0.5964
	c-0.329,0.2468-0.5622,0.5078-0.6991,0.7817c0,0.0553-0.1786,0.7955-0.2059,0.9049C31.6989,16.3242,31.6578,16.722,31.6854,16.7491z
	 M32.967,12.1768c0.2239-0.1503,0.3505-0.2378,0.4774-0.333c0.2174-0.1631,0.3935-0.2705,0.5857-0.4216
	c0.1914-0.1502,0.3836-0.3084,0.5757-0.473l1.3163-1.0284l0.4526-0.4112l1.6041-1.3984l0.1644-0.0824
	c0.4661-0.5481,0.8362-1.1105,1.1107-1.6864c0.2737-0.5757,0.4937-1.1928,0.6583-1.8509c0.0546-0.137,0.0821-0.274,0.0821-0.4115
	c0-0.1367,0.027-0.2737,0.0823-0.4112c0.0546-0.2468,0.0821-0.4936,0.0821-0.7404c0-0.2468,0-0.5072,0-0.7817
	c0-0.1091-0.0069-0.212-0.0204-0.3084c-0.0143-0.0957-0.0482-0.2121-0.103-0.3498c-0.1374-0.2189-0.2671-0.3424-0.3907-0.3701
	c-0.1234-0.027-0.2949,0.0277-0.5141,0.1645c-0.1376,0.0553-0.2538,0.1376-0.3497,0.247c-0.0963,0.1098-0.2128,0.2197-0.3497,0.329
	l-1.1104,1.0694c-0.2199,0.2468-0.432,0.4873-0.6376,0.7198c-0.2057,0.2332-0.4049,0.4729-0.5964,0.7197
	c-0.3022,0.4389-0.5828,0.8915-0.8433,1.3574c-0.261,0.4668-0.5005,0.9325-0.7197,1.3987c-0.1646,0.329-0.3158,0.658-0.4526,0.9872
	c-0.1376,0.329-0.3155,0.6721-0.5347,1.0283L33.3718,9.633c-0.0821,0.1376-0.1374,0.2879-0.1644,0.4525
	c-0.1646,0.3844-0.2949,0.7546-0.391,1.1105c-0.0963,0.3567-0.199,0.8945-0.3084,1.2784
	C32.5081,12.4744,32.8937,12.226,32.967,12.1768z"/>
<path fill="#fba07c" d="M47.0137,16.2846c-0.1374,0.329-0.2672,0.6446-0.4178,1.0149c-0.1509,0.3702-0.2948,0.7062-0.4317,1.0077
	c-0.0553,0.1375-0.2057,0.3978-0.4524,0.7817c-0.247,0.3841-0.4666,0.658-0.6583,0.8226c-0.1099,0.1099-0.2745,0.2262-0.4937,0.3497
	c-0.2197,0.1233-0.4524,0.2332-0.6991,0.329c-0.2467,0.0964-0.487,0.1786-0.7197,0.2467c-0.2335,0.0687-0.4185,0.1028-0.5556,0.1028
	c-0.2465,0.0276-0.487,0.0072-0.7197-0.0616c-0.2332-0.0682-0.4595-0.144-0.6787-0.2264c-0.1374-0.0546-0.2673-0.1367-0.3907-0.2466
	c-0.1234-0.1093-0.2406-0.2192-0.3497-0.3291c-0.1922-0.2192-0.3701-0.4248-0.5347-0.617
	c-0.1644-0.1915-0.3155-0.4249-0.4524-0.6992c-0.1917-0.3838-0.288-0.7405-0.288-1.0695c-0.0545-0.4383-0.041-0.8637,0.041-1.2752
	c0.0823-0.4112,0.1921-0.8084,0.329-1.1927c0.0548-0.0824,0.103-0.171,0.144-0.2675c0.0413-0.0957,0.0477-0.2121,0.0207-0.3496
	c-0.4384-0.3838-0.6993-0.8085-0.7817-1.275c-0.0821-0.4662-0.0268-0.9115,0.1646-1.337c0.1922-0.4247,0.4794-0.8156,0.8637-1.1722
	c0.3838-0.3561,0.8087-0.6029,1.2751-0.7404c0.5485-0.1915,1.0903-0.281,1.625-0.2673c0.5347,0.014,0.9111,0.0617,1.1311,0.144
	c0.5757,0.2743,1.0419,0.6034,1.3986,0.9872c0.3558,0.3842,0.6438,0.768,0.8637,1.1517c0.2189,0.3843,0.3836,0.7475,0.4934,1.09
	c0.1093,0.3432,0.1917,0.6105,0.2469,0.802c0.0823,0.3021,0.1298,0.6516,0.144,1.049c0.0135,0.3978,0.0064,0.6517-0.0206,0.7608
	c0.1369,0.0553,0.4113,0.0413,0.8227-0.0412c0.4114-0.0822,0.8433-0.1915,1.2957-0.329c0.4524-0.1367,0.8703-0.288,1.2547-0.4524
	c0.3836-0.1646,0.6167-0.3149,0.6991-0.4524l0.2467-0.1646c0.0823-0.0545,0.1917-0.0681,0.3291-0.0412
	c0.0273,0.0277,0.0273,0.0823,0,0.1645c-0.0273,0.0825-0.0688,0.1511-0.1234,0.2057c-0.2745,0.1922-0.5622,0.3774-0.8637,0.5553
	c-0.302,0.1788-0.6168,0.3362-0.9461,0.473c-0.3843,0.1375-0.8403,0.2868-1.378,0.4112
	C47.9886,16.2331,47.6106,16.263,47.0137,16.2846z M46.6989,15.8393c0.1094-0.4115,0.0823-0.9525-0.0821-1.6249
	c-0.1646-0.6715-0.4256-1.3162-0.7816-1.9332c-0.3568-0.617-0.7816-1.1376-1.2753-1.563c-0.4934-0.4247-1.0281-0.6099-1.6041-0.5553
	c-0.4389,0.0553-0.8296,0.1171-1.1723,0.1851c-0.343,0.0687-0.6652,0.1716-0.9664,0.3086
	c-0.4113,0.2466-0.7403,0.5211-0.9873,0.8226c-0.2467,0.3021-0.4114,0.617-0.4937,0.946c-0.0821,0.329-0.0752,0.6447,0.0206,0.946
	c0.0966,0.3021,0.2673,0.5625,0.5143,0.7815c0-0.027,0.0474-0.1092,0.1438-0.2467c0.0958-0.137,0.1988-0.281,0.3086-0.432
	c0.1093-0.1504,0.2121-0.2944,0.3084-0.4319c0.0958-0.137,0.2731-0.3223,0.3965-0.3635c0.1233-0.041,0.6385-0.0889,0.7758-0.0067
	h0.1234c0.1646-0.0272,0.2944,0.007,0.3909,0.1028c0.0956,0.0964,0.2118,0.1993,0.3497,0.3084
	c0.151,0.1517,0.2,0.3201,0.1468,0.5056c-0.0142,0.0496-0.1057,0.2965-0.188,0.4199c-0.0823,0.1235-0.1786,0.261-0.2877,0.4115
	c-0.1101,0.151-0.2059,0.2949-0.288,0.4319c-0.0826,0.1375-0.1236,0.2198-0.1236,0.2467c0.0548,0.0553,0.1369,0.1101,0.247,0.1646
	c0.1914,0.0553,0.3701,0.1028,0.5347,0.144c0.1644,0.041,0.9254,0.1644,1.1311,0.2055c0.2057,0.0413,1.3503,0.1305,1.707,0.185
	C45.9032,15.8533,46.2875,15.8669,46.6989,15.8393z M42.2977,20.3638c0.603,0,1.1171-0.0887,1.5424-0.2673
	c0.4249-0.178,0.7745-0.3908,1.0488-0.6375c0.274-0.2468,0.4868-0.5,0.6376-0.7609c0.1506-0.2604,0.2673-0.4732,0.3497-0.6377
	c0.1094-0.2191,0.2121-0.4732,0.3086-0.7609c0.0956-0.288,0.185-0.5412,0.2673-0.761c0.0271-0.0547,0.0545-0.1028,0.0821-0.144
	c0.027-0.041-0.0139-0.1468,0.0413-0.1439c-0.2354-0.0123-0.4114,0.048-0.8227-0.0206c-0.4113-0.0681-0.7546-0.103-1.0284-0.103
	c-0.2197,0-0.4873-0.0269-0.802-0.0822c-0.3155-0.0546-0.6241-0.1091-0.9254-0.1644c-0.3023-0.0548-0.576-0.1164-0.8227-0.1851
	c-0.247-0.0682-0.3846-0.1028-0.4114-0.1028c-0.1098,0.1644-0.1993,0.3702-0.2676,0.617c-0.0688,0.2467-0.1302,0.4666-0.185,0.6582
	c-0.1376,0.4112-0.2054,0.7956-0.2054,1.1516c0,0.0824,0.0133,0.2403,0.041,0.473c0.0268,0.2334,0.0887,0.4803,0.185,0.7405
	c0.0956,0.2608,0.2192,0.5005,0.3703,0.7197C41.8517,20.1724,42.051,20.3091,42.2977,20.3638z"/>
<path fill="#fba07c" d="M50.9907,22.3668c0.1369,0.0553,0.315,0.0553,0.5347,0c0.2192-0.1091,0.3971-0.1985,0.5349-0.2672
	c0.1369-0.0681,0.3013-0.1851,0.4934-0.3498c0.1371-0.1368,0.2737-0.2672,0.4113-0.3906c0.1369-0.1235,0.7264-0.6788,0.7817-0.761
	c0.1091-0.1093,0.2806-0.2944,0.514-0.5552c0.2327-0.2604,0.459-0.5207,0.6787-0.7817c0.2192-0.2603,0.418-0.5,0.5966-0.7197
	c0.1779-0.2192,0.3492-0.403,0.4315-0.5406c0.0821-0.1367,0.3705-0.556,0.4526-0.6935c0.0545-0.1094,0.1575-0.2944,0.3086-0.5552
	c0.1504-0.2603,0.2944-0.4731,0.4318-0.6376c0.1371-0.1369,0.2604-0.1781,0.3703-0.1234c0.1094,0.0553,0.1234,0.1644,0.0413,0.329
	c-0.1378,0.2198-0.288,0.4873-0.4526,0.802c-0.1644,0.3156-0.247,0.4872-0.247,0.5142c-0.333,0.5269-0.5476,0.8984-1.0425,1.4761
	c-0.4301,0.502-1.1373,1.2528-1.2196,1.3622c-0.0823,0.1098-0.1786,0.2262-0.2878,0.3495
	c-0.1101,0.1235-0.2128,0.2405-0.3086,0.3497c-0.0966,0.11-0.6241,0.5347-0.6787,0.617c-0.0823,0.0823-0.1646,0.158-0.2467,0.2262
	c-0.0823,0.0688-0.1646,0.144-0.2469,0.2262c-0.2197,0.1376-0.4524,0.2673-0.6993,0.3908
	c-0.2467,0.1234-0.5212,0.2128-0.8227,0.2673c-0.1644,0-0.288-0.0135-0.3701-0.0412c-0.549-0.0822-1.0561-0.3148-1.5218-0.6992
	l-0.6996-0.5758c-0.1366-0.1646-0.2327-0.3355-0.288-0.5142c-0.0545-0.178-0.0956-0.3766-0.1231-0.5964
	c-0.0548-0.4115-0.0754-0.8292-0.0619-1.2547c0.0142-0.4247,0.0619-0.8567,0.144-1.2956c0.1101-0.3838,0.2128-0.7816,0.3086-1.1929
	c0.0963-0.4114,0.2128-0.8086,0.3494-1.193l0.3705-1.1105l0.3701-1.3162c0.1091-0.4112,0.2327-0.829,0.3703-1.2544
	c0.1366-0.425,0.2737-0.8432,0.4111-1.2547l0.2469-0.6582c0.0821-0.2737,0.1779-0.5346,0.288-0.7814
	c0.1091-0.2468,0.2054-0.4938,0.288-0.7404c0.1366-0.3838,0.2941-0.7675,0.473-1.1518c0.1779-0.3836,0.3494-0.7674,0.514-1.1518
	c0.0823-0.1913,0.1779-0.3764,0.2878-0.5552c0.1093-0.1779,0.2192-0.3495,0.3293-0.5142c0.0823-0.1091,0.1575-0.2192,0.2261-0.329
	c0.0681-0.1092,0.13-0.2192,0.1853-0.329c0.0821-0.1092,0.1644-0.2327,0.2467-0.3702c0.0823-0.137,0.1644-0.2468,0.2467-0.3291
	c0.2192-0.3014,0.4455-0.5687,0.6787-0.802c0.2327-0.2327,0.6925-0.7198,1.7687-1.3162c0.3184-0.1765,0.7057-0.2121,1.09-0.2673
	c0.1094-0.0272,0.5617,0.0688,0.6993,0.1233c0.4384,0.1375,0.7816,0.3086,1.0281,0.5142c0.247,0.2057,0.432,0.4319,0.5556,0.6787
	c0.1234,0.2468,0.1986,0.5077,0.2261,0.7815c0.027,0.2745,0.0983,0.819-0.041,1.8921c-0.0492,0.3792-0.2745,0.7269-0.4114,1.1106
	c-0.1921,0.4114-0.3907,0.8093-0.5964,1.1929c-0.2059,0.3844-0.446,0.768-0.72,1.1518c-0.0551,0.1099-0.0963,0.1787-0.1234,0.2055
	c-0.1644,0.3567-1.0836,1.4951-1.3574,1.7689l-0.2467,0.288c-0.0278,0.0551-0.1786,0.2127-0.4524,0.4728
	c-0.2745,0.2611-0.4804,0.4596-0.617,0.5966l-1.481,1.5218c-0.3556,0.2892-0.5493,0.4359-0.9272,0.7405
	c-0.2656,0.2141-0.6223,0.4255-0.9236,0.617c-0.1101,0.0277-0.1924,0.1375-0.2469,0.3291
	c-0.1374,0.4112-0.2745,0.8226-0.4111,1.2338c-0.1379,0.4115-0.2469,0.8505-0.3293,1.3162c-0.0553,0.3021-0.117,0.6036-0.1853,0.905
	c-0.0686,0.3021-0.1302,0.617-0.185,0.946c-0.055,0.3021-0.0821,0.624-0.0821,0.9668c0,0.343,0.027,0.6786,0.0821,1.0076
	c0.0548,0.1375,0.0958,0.2675,0.1236,0.3908C50.8531,22.1818,50.9084,22.2846,50.9907,22.3668z M58.8882,2.253
	c-0.1922-0.137-0.3978-0.1028-0.617,0.1027C58.0513,2.5615,57.8599,2.733,57.6955,2.87c-0.3568,0.302-0.6858,0.631-0.9873,0.9872
	c-0.302,0.3565-0.6035,0.7269-0.905,1.1105c-0.2467,0.2745-0.4524,0.5759-0.617,0.905c-0.1644,0.329-0.343,0.6447-0.5344,0.946
	c-0.2199,0.3843-0.405,0.775-0.5556,1.1722c-0.1509,0.3978-0.2949,0.8022-0.4318,1.2134l-1.0696,3.1262
	c-0.0821,0.2742-0.1644,0.5418-0.2467,0.802c-0.0823,0.2608-0.3601,1.2134-0.3601,1.2134s0.515-0.2959,0.7072-0.4336
	c0.1917-0.1367,0.4564-0.3301,0.666-0.4715c0.4891-0.33,0.6549-0.5819,0.9842-0.884c0.329-0.3015,2.502-2.6609,2.7584-3.1184
	c0.1234-0.2202,0.8385-1.125,1.0029-1.4271c0.3838-0.6029,0.6993-1.2064,0.9463-1.8098l0.329-0.9872
	c0.0821-0.2468,0.1233-0.5348,0.1233-0.8638c0-0.0546,0-0.1709,0-0.3497c0-0.1779-0.014-0.3765-0.0413-0.5964
	c-0.0275-0.2192-0.0892-0.4382-0.185-0.6582C59.1826,2.5273,59.0529,2.3629,58.8882,2.253z"/>
</svg>
