<?xml version="1.0" encoding="utf-8"?>
<!-- Generator: Adobe Illustrator 18.1.1, SVG Export Plug-In . SVG Version: 6.00 Build 0)  -->
<svg version="1.1" id="to-edit-in-vector_1_" xmlns="http://www.w3.org/2000/svg" xmlns:xlink="http://www.w3.org/1999/xlink"
	 x="0px" y="0px" viewBox="0 0 400.005 217.292" enable-background="new 0 0 400.005 217.292" xml:space="preserve">
	 <title>Linnette logo</title>
<g id="Linnette">
	<g>
		<path fill="#FBA07C" d="M93.382,165.355c-0.552,1.062-1.296,2.002-2.238,2.82c-0.158,0.159-0.317,0.236-0.471,0.236
			c-0.317,0-0.589-0.118-0.825-0.354c-0.236-0.236-0.353-0.509-0.353-0.826v-42.701H73.474v37.51c0,4,1.333,7.358,4.005,10.078
			c2.669,2.72,5.89,4.077,9.66,4.077c3.77,0,7.027-1.357,9.777-4.077c2.746-2.72,4.123-6.078,4.123-10.078h-6.832
			C94.206,163.188,93.93,164.293,93.382,165.355z M160.292,163.221c-0.081,0.472-0.276,1.025-0.589,1.651
			c-0.158,0.789-0.512,1.533-1.06,2.241c-0.552,0.708-1.141,1.062-1.767,1.062c-0.471,0-0.747-0.077-0.825-0.236
			c-0.081-0.155-0.118-0.391-0.118-0.708v-0.236v-29.253c0-2.201-0.471-4.206-1.414-6.016c-0.942-1.806-2.201-3.34-3.77-4.6
			c-1.572-1.257-3.339-2.241-5.301-2.949c-1.966-0.708-3.968-1.062-6.008-1.062c-1.414,0-2.827,0.159-4.241,0.472
			c-1.414,0.317-2.75,0.708-4.005,1.18c-1.885,0.63-3.692,1.533-5.419,2.713c-1.73,1.18-3.298,2.558-4.712,4.129
			c-1.101-2.986-2.79-5.15-5.065-6.488c-2.279-1.334-4.675-2.005-7.186-2.005c-0.158,0-0.276,0-0.353,0c-0.081,0-0.199,0-0.353,0
			c-3.457,0.159-6.597,1.456-9.424,3.893c-2.827,2.44-4.241,5.78-4.241,10.026h6.832c0-1.257,0.272-2.396,0.825-3.421
			c0.549-1.021,1.296-1.847,2.238-2.477c0.155,0,0.236-0.077,0.236-0.236h0.236c0.155,0,0.313,0,0.471,0
			c0,0.159,0.077,0.317,0.236,0.472c0.155,0.159,0.313,0.236,0.471,0.236c0,0.159,0,0.317,0,0.472v44.116h16.256v-33.028
			c0.313-1.57,0.942-3.067,1.885-4.482c0.942-1.415,2.039-2.672,3.298-3.775c0.155-0.155,0.471-0.431,0.942-0.826
			c0.471-0.391,1.02-0.745,1.649-1.062c0.155-0.155,0.272-0.273,0.353-0.354c0.077-0.077,0.195-0.118,0.353-0.118
			c0.626-0.472,1.255-0.903,1.885-1.298c0.626-0.391,1.02-0.509,1.178-0.354c0.313-0.155,0.589-0.236,0.825-0.236
			c0.236,0,0.431,0,0.589,0c1.097,0,2.08,0.276,2.945,0.826c0.861,0.553,1.296,1.456,1.296,2.713v27.838
			c0,3.933,1.373,7.236,4.123,9.908c2.746,2.676,6.008,4.01,9.777,4.01c3.77,0,7.027-1.334,9.777-4.01
			c2.746-2.672,4.123-5.975,4.123-9.908h-6.832C160.41,162.358,160.369,162.749,160.292,163.221z M225.788,163.221
			c-0.081,0.472-0.276,1.025-0.589,1.651c-0.158,0.789-0.512,1.533-1.06,2.241c-0.552,0.708-1.141,1.062-1.767,1.062
			c-0.471,0-0.747-0.077-0.825-0.236c-0.081-0.155-0.118-0.391-0.118-0.708v-0.236v-29.253c0-2.201-0.471-4.206-1.414-6.016
			c-0.942-1.806-2.201-3.34-3.77-4.6c-1.572-1.257-3.339-2.241-5.301-2.949c-1.966-0.708-3.968-1.062-6.008-1.062
			c-1.414,0-2.827,0.159-4.241,0.472c-1.414,0.317-2.75,0.708-4.005,1.18c-1.885,0.63-3.692,1.533-5.419,2.713
			c-1.73,1.18-3.298,2.558-4.712,4.129c-1.101-2.986-2.79-5.15-5.065-6.488c-2.279-1.334-4.675-2.005-7.186-2.005
			c-0.158,0-0.276,0-0.353,0c-0.081,0-0.199,0-0.353,0c-3.457,0.159-6.597,1.456-9.424,3.893c-2.827,2.44-4.241,5.78-4.241,10.026
			h6.832c0-1.257,0.272-2.396,0.825-3.421c0.549-1.021,1.296-1.847,2.238-2.477c0.155,0,0.236-0.077,0.236-0.236h0.236
			c0.155,0,0.313,0,0.471,0c0,0.159,0.077,0.317,0.236,0.472c0.155,0.159,0.313,0.236,0.471,0.236c0,0.159,0,0.317,0,0.472v44.116
			h16.256v-33.028c0.313-1.57,0.942-3.067,1.885-4.482c0.942-1.415,2.039-2.672,3.298-3.775c0.155-0.155,0.471-0.431,0.942-0.826
			c0.471-0.391,1.02-0.745,1.649-1.062c0.155-0.155,0.272-0.273,0.353-0.354c0.077-0.077,0.195-0.118,0.353-0.118
			c0.626-0.472,1.255-0.903,1.885-1.298c0.626-0.391,1.02-0.509,1.178-0.354c0.313-0.155,0.589-0.236,0.825-0.236s0.431,0,0.589,0
			c1.097,0,2.08,0.276,2.945,0.826c0.861,0.553,1.296,1.456,1.296,2.713v27.838c0,3.933,1.373,7.236,4.123,9.908
			c2.746,2.676,6.008,4.01,9.777,4.01c3.77,0,7.027-1.334,9.777-4.01c2.746-2.672,4.123-5.975,4.123-9.908h-6.832
			C225.906,162.358,225.865,162.749,225.788,163.221z M271.021,166.524c-2.437,1.416-4.988,2.282-7.657,2.595
			c-0.158,0-0.276,0-0.353,0c-0.081,0-0.199,0-0.353,0c-2.043,0.159-3.652-0.509-4.83-2.005c-1.178-1.493-2.161-3.185-2.945-5.072
			c-0.158-0.627-0.353-1.257-0.589-1.887c-0.236-0.627-0.434-1.257-0.589-1.887l0.707-0.236c1.097-0.313,2.275-0.667,3.534-1.062
			c1.255-0.391,2.511-0.826,3.77-1.297c4.395-1.57,8.364-3.812,11.898-6.724c3.534-2.908,5.301-6.724,5.301-11.442
			c0-0.155,0-0.313,0-0.472c0-0.155,0-0.313,0-0.472c0-0.155,0-0.313,0-0.472c0-0.155,0-0.313,0-0.472
			c-0.63-4.401-2.632-7.549-6.008-9.437c-3.379-1.887-7.108-2.908-11.191-3.067c-0.158,0-0.276,0-0.353,0c-0.081,0-0.199,0-0.353,0
			c-8.169,0.159-14.806,2.912-19.908,8.257c-5.106,5.349-7.738,11.482-7.893,18.401c0,3.303,0.666,6.569,2.003,9.79
			c1.333,3.225,3.416,6.174,6.243,8.847c2.356,2.204,4.907,3.933,7.657,5.19c2.746,1.261,5.537,2.046,8.364,2.359
			c0.471,0.159,0.942,0.236,1.414,0.236s0.942,0,1.414,0c4.082,0,8.088-0.903,12.015-2.713c3.924-1.806,7.304-4.442,10.131-7.903
			l-5.183-4.246C275.534,163.379,273.454,165.108,271.021,166.524z M252.526,151.071c0-0.077,0-0.195,0-0.354
			c0-1.098,0.077-2.396,0.236-3.893c0.155-1.493,0.471-3.026,0.942-4.6c0.626-2.986,1.727-5.739,3.298-8.257
			c1.568-2.514,3.611-3.775,6.126-3.775c0.313,0,0.666,0,1.06,0c0.39,0,0.744,0.081,1.06,0.236c1.568,0.158,3.063,0.708,4.476,1.651
			s2.198,2.359,2.356,4.246c0,0.159,0,0.317,0,0.472c0,0.159,0,0.317,0,0.472c0,2.831-1.178,5.19-3.534,7.077
			s-5.029,3.384-8.01,4.482c-1.414,0.63-2.827,1.143-4.241,1.533c-1.414,0.394-2.673,0.748-3.77,1.062
			C252.526,151.27,252.526,151.152,252.526,151.071z M339.106,165.477c-0.552,1.146-1.296,2.046-2.238,2.698
			c-0.158,0.159-0.276,0.236-0.353,0.236c-0.081,0-0.199-0.077-0.353-0.236c-0.317,0-0.552-0.118-0.707-0.354
			c-0.158-0.236-0.236-0.431-0.236-0.59c0-3.163,0-6.289,0-9.378c0-3.085,0-6.211,0-9.378c0-3.008,0-6.093,0-9.26
			c0-3.163,0-6.252,0-9.26h10.838v-6.842h-10.838V83.482h-16.256v39.634h-4.24h-2.357h-8.48V83.482h-16.256v39.634h-6.597v6.842
			h6.597v32.084c0,4,1.373,7.358,4.123,10.078c2.746,2.72,6.008,4.077,9.777,4.077s7.027-1.357,9.777-4.077
			c2.746-2.72,4.123-6.078,4.123-10.078h-6.832c0,1.146-0.276,2.293-0.825,3.435c-0.552,1.146-1.296,2.046-2.238,2.698
			c-0.158,0.159-0.276,0.236-0.353,0.236c-0.081,0-0.199-0.077-0.353-0.236c-0.317,0-0.552-0.118-0.707-0.354
			c-0.158-0.236-0.236-0.431-0.236-0.59c0-3.163,0-6.289,0-9.378c0-3.085,0-6.211,0-9.378c0-3.008,0-6.093,0-9.26
			c0-3.163,0-6.252,0-9.26h8.48h2.357h4.24v32.084c0,4,1.373,7.358,4.123,10.078c2.746,2.72,6.008,4.077,9.777,4.077
			c3.77,0,7.027-1.357,9.777-4.077c2.746-2.72,4.123-6.078,4.123-10.078h-6.832C339.93,163.188,339.654,164.334,339.106,165.477z
			 M394.822,161.333c-1.73,2.046-3.81,3.775-6.243,5.19c-2.437,1.416-4.988,2.282-7.657,2.595c-0.158,0-0.276,0-0.353,0
			c-0.081,0-0.199,0-0.353,0c-2.043,0.159-3.652-0.509-4.83-2.005c-1.178-1.493-2.161-3.185-2.945-5.072
			c-0.158-0.627-0.353-1.257-0.589-1.887c-0.236-0.627-0.434-1.257-0.589-1.887l0.707-0.236c1.097-0.313,2.275-0.667,3.534-1.062
			c1.255-0.391,2.51-0.826,3.77-1.297c4.395-1.57,8.364-3.812,11.898-6.724c3.534-2.908,5.301-6.724,5.301-11.442
			c0-0.155,0-0.313,0-0.472c0-0.155,0-0.313,0-0.472c0-0.155,0-0.313,0-0.472c0-0.155,0-0.313,0-0.472
			c-0.629-4.401-2.632-7.549-6.008-9.437c-3.379-1.887-7.108-2.908-11.191-3.067c-0.158,0-0.276,0-0.353,0c-0.081,0-0.199,0-0.353,0
			c-8.169,0.159-14.806,2.912-19.908,8.257c-5.106,5.349-7.738,11.482-7.892,18.401c0,3.303,0.666,6.569,2.003,9.79
			c1.333,3.225,3.416,6.174,6.243,8.847c2.356,2.204,4.907,3.933,7.657,5.19c2.746,1.261,5.537,2.046,8.364,2.359
			c0.471,0.159,0.942,0.236,1.414,0.236c0.471,0,0.942,0,1.414,0c4.082,0,8.088-0.903,12.015-2.713
			c3.924-1.806,7.304-4.442,10.131-7.903L394.822,161.333z M370.084,151.071c0-0.077,0-0.195,0-0.354
			c0-1.098,0.077-2.396,0.236-3.893c0.155-1.493,0.471-3.026,0.942-4.6c0.626-2.986,1.726-5.739,3.298-8.257
			c1.568-2.514,3.611-3.775,6.126-3.775c0.313,0,0.666,0,1.06,0c0.39,0,0.744,0.081,1.06,0.236c1.568,0.158,3.063,0.708,4.476,1.651
			c1.414,0.944,2.198,2.359,2.356,4.246c0,0.159,0,0.317,0,0.472c0,0.159,0,0.317,0,0.472c0,2.831-1.178,5.19-3.534,7.077
			s-5.029,3.384-8.01,4.482c-1.414,0.63-2.827,1.143-4.241,1.533c-1.414,0.394-2.673,0.748-3.77,1.062
			C370.084,151.27,370.084,151.152,370.084,151.071z"/>
	</g>
</g>
<g id="L">
	<g>
		<path fill-rule="evenodd" clip-rule="evenodd" fill="#FBA07C" d="M150.123,192.875c-0.142,0.707-0.391,1.344-0.742,1.911
			c-0.354,0.564-0.673,1.131-0.954,1.699c-1.839,3.536-4.383,6.051-7.633,7.537c-3.253,1.486-6.928,2.229-11.026,2.229
			c-3.678,0-7.739-0.531-12.192-1.592c-4.453-1.062-9.084-2.442-13.888-4.14c-6.222-2.266-12.298-4.777-18.235-7.538
			c-5.937-2.76-11.805-5.484-17.599-8.174c-0.567-0.282-1.097-0.531-1.59-0.743c-0.497-0.212-0.954-0.458-1.378-0.743
			c-3.677-1.699-7.352-3.43-11.026-5.202c-3.677-1.768-7.352-3.43-11.026-4.99c2.26-3.679,3.992-7.783,5.195-12.315
			c1.199-4.529,1.802-9.269,1.802-14.226c0-8.775,0-17.623,0-26.54c0-8.918,0-17.835,0-26.753c0-0.707,0-1.38,0-2.017
			c0-0.637,0.07-1.307,0.212-2.017c0.563-5.378,2.226-10.298,4.983-14.756s7.173-6.758,13.252-6.901h0.212
			c0.563,0,1.166,0.036,1.802,0.106c0.636,0.073,1.236,0.179,1.802,0.318c3.532,0.849,6.712,2.584,9.542,5.202
			c2.826,2.621,4.31,5.769,4.453,9.448c0,0.425-0.036,0.886-0.106,1.38c-0.073,0.498-0.179,1.028-0.318,1.592
			c-0.709-1.274-1.557-2.299-2.544-3.079c-0.991-0.776-2.051-1.38-3.181-1.805c-0.285-0.139-0.636-0.246-1.06-0.318
			c-0.424-0.07-0.848-0.106-1.272-0.106c-1.839,0-3.429,0.531-4.771,1.592c-1.345,1.062-2.014,2.515-2.014,4.353
			c0,0.992,0.176,2.017,0.53,3.079c0.351,1.062,1.024,2.16,2.014,3.291c0.848,0.992,1.729,1.805,2.651,2.442
			c0.918,0.637,1.872,1.028,2.862,1.168c0.282,0.143,0.6,0.212,0.954,0.212c0.351,0,0.669,0,0.954,0
			c2.826,0.143,5.407-1.062,7.739-3.609s3.499-5.59,3.499-9.13c0-7.076-2.65-12.56-7.951-16.455
			c-5.301-3.891-11.132-5.839-17.493-5.839c-9.19,0-16.433,3.434-21.734,10.298c-5.301,6.867-8.66,14.474-10.072,22.825
			c-0.285,1.417-0.497,2.903-0.636,4.459c-0.142,1.559-0.212,3.046-0.212,4.459c0,8.354,0,16.74,0,25.16c0,8.423,0,16.88,0,25.373
			c0,2.833-0.142,5.52-0.424,8.068c-0.285,2.548-0.779,4.883-1.484,7.007c-3.111-1.131-6.043-2.017-8.8-2.654
			c-2.757-0.637-5.337-0.955-7.739-0.955c-0.142,0-0.285,0-0.424,0c-0.143,0-0.248,0-0.318,0c-0.073,0-0.179,0-0.318,0
			c-4.807,0.143-8.375,1.629-10.708,4.459c-2.332,2.833-3.572,5.875-3.711,9.13c0,3.115,1.166,5.945,3.499,8.493
			c2.332,2.548,5.758,3.822,10.284,3.822c4.804-0.143,9.363-1.274,13.676-3.397c4.31-2.123,8.021-5.096,11.132-8.918
			c3.817,1.841,7.773,3.822,11.874,5.945c4.098,2.123,8.269,4.316,12.51,6.582c2.544,1.413,5.546,3.112,9.012,5.096
			c3.462,1.981,7.173,4.034,11.132,6.157c3.532,1.699,7.209,3.43,11.026,5.202c3.817,1.768,7.633,3.361,11.45,4.777
			c3.817,1.274,7.633,2.336,11.45,3.185c3.817,0.849,7.491,1.274,11.026,1.274c5.795,0,10.99-1.38,15.585-4.14
			c4.592-2.76,8.021-7.468,10.284-14.119c0.424-0.992,0.706-1.699,0.848-2.123c0.139-0.425,0.212-0.849,0.212-1.274
			c0-0.143,0.07-0.212,0.212-0.212c0-0.143,0-0.285,0-0.425L150.123,192.875z M23.218,182.365c-2.757,2.054-5.974,3.079-9.648,3.079
			c-2.12,0-3.89-0.601-5.301-1.805c-1.415-1.201-2.12-2.724-2.12-4.565c0-0.282,0-0.531,0-0.743c0-0.212,0.07-0.458,0.212-0.743
			c0-0.282,0.033-0.531,0.106-0.743c0.07-0.212,0.176-0.458,0.318-0.743c0.706-1.699,1.872-2.866,3.499-3.503
			c1.623-0.637,3.426-0.955,5.407-0.955c0.563,0,1.166,0.036,1.802,0.106c0.636,0.073,1.236,0.106,1.802,0.106
			c1.272,0.285,2.508,0.531,3.711,0.743c1.199,0.212,2.296,0.531,3.287,0.955c0.706,0.143,1.378,0.318,2.014,0.531
			s1.166,0.391,1.59,0.531C28.201,177.731,25.975,180.315,23.218,182.365z"/>
	</g>
</g>
<g id="photography">
	<g>
		<path fill="#FA987D" d="M185.06,196.967h-7.573v18.872h2.345v-7.498h5.227c3.758,0,5.906-2.603,5.906-5.687
			C190.966,199.57,188.846,196.967,185.06,196.967z M184.777,206.248h-4.945v-7.187h4.945c2.232,0,3.758,1.471,3.758,3.593
			S187.01,206.248,184.777,206.248z M207.448,205.088h-11.02v-8.12h-2.345v18.872h2.345v-8.658h11.02v8.658h2.345v-18.872h-2.345
			V205.088z M222.802,196.656c-5.566,0-9.353,4.188-9.353,9.761s3.786,9.761,9.353,9.761c5.566,0,9.381-4.188,9.381-9.761
			S228.368,196.656,222.802,196.656z M222.802,214.085c-4.238,0-6.923-3.282-6.923-7.668c0-4.414,2.684-7.668,6.923-7.668
			c4.21,0,6.951,3.254,6.951,7.668C229.753,210.803,227.012,214.085,222.802,214.085z M233.777,199.061h5.962v16.779h2.345v-16.779
			h5.99v-2.094h-14.298V199.061z M259.018,196.656c-5.566,0-9.353,4.188-9.353,9.761s3.786,9.761,9.353,9.761
			s9.381-4.188,9.381-9.761S264.584,196.656,259.018,196.656z M259.018,214.085c-4.238,0-6.923-3.282-6.923-7.668
			c0-4.414,2.684-7.668,6.923-7.668c4.21,0,6.951,3.254,6.951,7.668C265.969,210.803,263.228,214.085,259.018,214.085z
			 M279.572,208.228h6.499v3.82c-0.961,0.962-2.826,2.037-5.086,2.037c-4.125,0-7.262-3.197-7.262-7.668
			c0-4.527,3.136-7.668,7.262-7.668c2.26,0,4.267,1.075,5.453,2.603l1.865-1.188c-1.639-2.037-3.956-3.508-7.318-3.508
			c-5.369,0-9.692,3.876-9.692,9.761c0,5.857,4.323,9.79,9.692,9.79c3.08,0,5.651-1.302,7.403-3.282v-6.791h-8.816V208.228z
			 M305.72,202.654c0-3.48-2.487-5.687-5.934-5.687h-7.573v18.872h2.345v-7.498h3.786l4.775,7.498h2.769l-5.086-7.696
			C303.375,207.917,305.72,206.05,305.72,202.654z M294.559,206.276v-7.215h4.945c2.232,0,3.786,1.443,3.786,3.593
			c0,2.122-1.554,3.622-3.786,3.622H294.559z M315.082,196.967l-7.601,18.872h2.684l1.667-4.216h9.381l1.667,4.216h2.684
			l-7.573-18.872H315.082z M312.539,209.558l3.984-10.186l4.012,10.186H312.539z M335.606,196.967h-7.573v18.872h2.345v-7.498h5.227
			c3.758,0,5.906-2.603,5.906-5.687C341.511,199.57,339.392,196.967,335.606,196.967z M335.323,206.248h-4.945v-7.187h4.945
			c2.232,0,3.758,1.471,3.758,3.593S337.555,206.248,335.323,206.248z M357.993,205.088h-11.02v-8.12h-2.345v18.872h2.345v-8.658
			h11.02v8.658h2.345v-18.872h-2.345V205.088z M377.247,196.967l-5.849,8.771l-5.849-8.771h-2.741l7.431,10.893v7.979h2.345v-7.979
			l7.403-10.893H377.247z"/>
	</g>
</g>
<g id="Vector_Smart_Object_xA0_Image_1_">
	<path fill="#81F2DF" d="M122.922,67.141c-3.045-0.34-6.249-0.986-9.283-2.06c2.6,2.252,5.503,4.362,8.604,6.329
		c8.304-0.462,16.593-2.469,22.706-7.492C138.017,66.753,130.375,67.971,122.922,67.141"/>
	<path fill="#81F2DF" d="M187.446,47.775c-5.89-5.252-12.581-9.318-19.499-12.999c-1.129-0.162-2.248-0.319-3.345-0.468
		c3.399,2.12,6.614,4.53,9.755,7.09c3.636,2.684,7.07,5.631,10.183,8.843c5.259,4.897,10.046,10.259,12.829,16.99
		c1.382-0.127,2.755-0.28,4.122-0.451C200.127,59.157,192.907,52.644,187.446,47.775"/>
	<path fill="#81F2DF" d="M176.315,46.093c4.906,3.83,10.021,8.271,14.087,13.337c-1.979-2.894-4.23-5.627-6.702-8.187
		c-1.908-1.775-3.879-3.49-5.837-5.186c-1.431-1.241-2.872-2.458-4.327-3.645c-4.539-3.344-9.378-6.279-14.268-8.783
		c-1.726-0.206-3.386-0.386-4.977-0.54C161.94,36.895,169.558,40.82,176.315,46.093"/>
	<path fill="#81F2DF" d="M108.651,42.17c-2.017-2.187-4.138-5.251-6.3-7.319c-3.338,10.621,0.729,19.887,8.496,27.645
		c4.097,2.051,8.859,3.055,13.205,3.442c7.904,0.705,15.964-0.998,23.083-4.435c-5.268-2.447-10.486-5.468-15.616-9.168
		c20.918,12.834,42.389,16.443,62.56,15.124c-4.152-8.415-12.182-15.53-19.574-21.102c-7.318-5.515-15.586-9.513-23.765-13.571
		c-8.596-0.632-14.312-0.198-14.48,2.18c6.152,0.847,8.149,3.13,13.038,3.424c-8.983,1.581-31.416-13.437-44.488-9.176
		C99.771,30.857,108.231,40.323,108.651,42.17"/>
	<path fill="#81F2DF" d="M176.596,80.688c-4.105,2.798-8.358,5.305-12.854,7.392c0.763,0.177,1.512,0.344,2.243,0.499
		C169.99,86.394,173.439,83.757,176.596,80.688"/>
	<path fill="#81F2DF" d="M203.471,89.917c2.383-0.193,4.751-0.422,7.073-0.714c1.337-1.449,2.632-2.941,3.854-4.498
		c2.753-3.505,5.115-7.27,7.419-11.08c1.88-3.109,3.7-6.356,4.35-9.953c-0.543,0.167-1.096,0.319-1.642,0.481
		C219.856,74.257,212.411,83.13,203.471,89.917"/>
	<path fill="#81F2DF" d="M161.642,87.577c6.992-3.048,13.367-7.138,19.504-11.77c0.6-0.452,1.348,0.399,0.88,0.957
		c-4.166,4.966-8.647,8.968-14.124,12.211c3.333,0.647,6.244,1.048,8.529,1.188c7.952,0.486,16.374,0.487,24.601-0.064
		c9.185-6.573,16.91-15.378,21.803-25.451c-22.712,6.479-47.861,8.445-72.103-1.565c-5.396,5.977-12.419,10.504-20.066,13.092
		C140.965,81.41,152.272,85.247,161.642,87.577"/>
	<path fill="#81F2DF" d="M129.027,75.326c7.761-2.386,14.94-6.831,20.421-12.787c-0.269-0.116-0.538-0.222-0.807-0.342
		c-6.092,6.781-15.178,9.608-24.482,10.392C125.741,73.539,127.37,74.45,129.027,75.326"/>
	<path fill="#4AE5BD" d="M256.676,40.487c-2.9-2.186-6.161-3.754-9.607-4.881c-3.8-1.245-7.723-1.949-11.672-2.535
		c-0.442,0.17-0.871,0.357-1.272,0.578c10.029,0.771,20.741,5.813,26.09,13.797c0.778-0.396,1.537-0.788,2.292-1.181
		C261.842,43.967,258.308,41.719,256.676,40.487"/>
	<path fill="#4AE5BD" d="M276.838,38.377c0.933-0.536,1.839-1.058,2.696-1.552c-2.857-4.451-7.709-7.195-12.927-8.472
		c0.568,0.519,1.101,0.976,1.624,1.413C271.585,32.028,274.499,34.93,276.838,38.377"/>
	<path fill="#4AE5BD" d="M253.317,31.993c-0.103,0.061-0.201,0.114-0.305,0.177c-0.029,0.599,6.289,3.047,6.521,3.435
		c-0.559-0.1-12.354-4.465-20.872-3.333c4.04,0.694,8.022,1.617,11.83,3.205c3.442,1.435,6.466,3.397,9.288,5.811
		c1.242,1.062,3.208,2.607,3.889,4.368c4.181-2.196,7.957-4.307,11.324-6.226C268.744,34.601,261.186,31.712,253.317,31.993"/>
	<path fill="#4AE5BD" d="M286.092,31.669c0.31,0.682-0.762,1.219-1.154,0.599c-2.319-3.661-5.699-5.773-9.523-7.079
		c-2.31,0.292-4.939,0.929-7.929,2.033c5.35,1.418,10.283,4.329,13.185,8.946c4.641-2.675,8.017-4.588,9.854-5.145
		c-0.972-1.598-3.827-5.323-10.268-5.939C282.719,26.614,284.749,28.707,286.092,31.669"/>
	<path fill="#4AE5BD" d="M173.285,35.32c6.278,3.52,12.291,7.455,17.649,12.381c5.388,4.955,12.128,11.317,13.477,18.899
		c21.392-2.893,40.92-10.872,56.234-18.56c-1.669-2.439-3.857-4.585-6.388-6.401c-12.187-7.284-31.533-8.15-38.686-0.784
		c4.37,0.559,13.118,2.081,21.298,3.197C231.848,45.797,199.627,39.265,173.285,35.32"/>
	<path fill="#4AE5BD" d="M218.611,88.23c1.852-2.679,3.453-5.549,4.842-8.503c1.946-4.139,4.465-8.675,4.996-13.348
		c-0.835,2.596-2.164,5.031-3.572,7.38c-2.226,3.712-4.505,7.406-7.13,10.853c-1.135,1.491-2.339,2.923-3.577,4.323
		C215.674,88.725,217.15,88.485,218.611,88.23"/>
	<path fill="#4AE5BD" d="M254.051,61.817c0.29-0.514,1.242-0.508,1.252,0.209c0.077,5.983-2.235,10.855-5.366,15.451
		c8.511-7.231,15.755-18.19,14.175-28.835c-10.208,5.162-21.843,10.397-34.339,14.4c0.666,6.05-2.634,11.931-5.124,17.225
		c-1.238,2.631-2.63,5.206-4.223,7.639c7.094-1.343,13.561-3.243,18.874-5.756c1.293-0.971,2.535-2.012,3.694-3.161
		c0.297-0.295,0.564-0.611,0.846-0.916c0.952-1.222,1.939-2.415,2.915-3.612C249.547,70.493,251.646,66.073,254.051,61.817"/>
	<path fill="#4AE5BD" d="M266.639,61.571c2.448-4.748,5.77-11.663,4.002-17.174c-2.045,1.096-4.165,2.213-6.357,3.338
		c0.66,8.944-2.518,19.256-8.342,26.984c2.702-2.27,5.322-4.933,7.463-7.455C264.607,65.372,265.682,63.425,266.639,61.571"/>
	<path fill="#4AE5BD" d="M278.52,40.085c-2.129,1.183-4.359,2.412-6.707,3.68c1.967,5.646-1.145,12.681-3.619,17.638
		c-1.608,3.222-3.55,6.681-5.895,9.75c-0.038,0.076-0.08,0.154-0.116,0.23c1.664-0.388,8.546-7.365,9.599-8.505
		c-1.315,3.508-3.544,6.012-2.529,6.831c3.179-1.694,7.279-3.846,10.113-7.275C281.66,55.138,281.836,47.413,278.52,40.085"/>
	<path fill="#4AE5BD" d="M288.113,55.935c0.165-0.141,0.294-0.275,0.446-0.413c2.825-6.453,2.584-14.48-3.055-19.333
		c-1.254,0.698-2.545,1.419-3.916,2.185c4.045,5.303,4.631,13.769,3.33,20.322c1.596-1.68,2.888-9.625,2.995-11.899
		C288.017,48.413,288.866,50.055,288.113,55.935"/>
	<path fill="#4AE5BD" d="M291.204,41.844c0.343,0.955,0.623,1.942,0.823,2.947c0.406,0.632,0.637,1.376,0.863,2.208
		C292.64,45.231,292.04,43.487,291.204,41.844"/>
	<path fill="#4AE5BD" d="M294.24,50.31c5.113-6.833-2.488-11.763-4.708-13.955c4.213,2.355,9.478,7.337,2.549-3.754
		c-1.34,0.704-2.814,1.508-4.374,2.368C291.683,38.833,294.944,44.704,294.24,50.31"/>
	<path fill="#4AE5BD" d="M280.427,39.023c-0.252,0.14-0.498,0.279-0.754,0.421c1.249,2.705,2.049,5.466,2.431,8.246
		c1.013,1.337,1.739,3.719,2.083,6.125C284.436,48.544,283.42,42.899,280.427,39.023"/>
	<path fill="#4AE5BD" d="M294.313,31.434c0,0,12.012-3.587,22.111-13.118c10.099-9.531,12.994-14.373,12.994-14.373l-6.298-3.942
		c0,0-4.669,12.104-11.005,18.162c-9.543,9.122-18.671,11.614-18.671,11.614L294.313,31.434z"/>
	<rect x="101.176" y="0" fill="none" width="228.241" height="90.52"/>
</g>
</svg>
