<?xml version="1.0" encoding="utf-8"?>
<!-- Generator: Adobe Illustrator 18.1.1, SVG Export Plug-In . SVG Version: 6.00 Build 0)  -->
<svg version="1.1" id="Layer_1" xmlns="http://www.w3.org/2000/svg" xmlns:xlink="http://www.w3.org/1999/xlink" x="0px" y="0px"
	 viewBox="0 0 24 17" enable-background="new 0 0 24 17" xml:space="preserve">
	 <title>Otevřít menu</title>
<path fill="currentColor" d="M1.5,0h21C23.328,0,24,0.671,24,1.5C24,2.328,23.328,3,22.5,3h-21
	C0.671,3,0,2.328,0,1.5C0,0.671,0.671,0,1.5,0z"/>
<path fill="currentColor" d="M1.5,14h21c0.828,0,1.5,0.672,1.5,1.5c0,0.828-0.672,1.5-1.5,1.5h-21
	C0.671,17,0,16.328,0,15.5C0,14.672,0.671,14,1.5,14z"/>
<path fill="currentColor" d="M1.5,7h21C23.328,7,24,7.672,24,8.5c0,0.828-0.672,1.5-1.5,1.5h-21
	C0.671,10,0,9.328,0,8.5C0,7.672,0.671,7,1.5,7z"/>
</svg>
