<?xml version="1.0" encoding="utf-8"?>
<!-- Generator: Adobe Illustrator 18.0.0, SVG Export Plug-In . SVG Version: 6.00 Build 0)  -->
<!DOCTYPE svg PUBLIC "-//W3C//DTD SVG 1.1//EN" "http://www.w3.org/Graphics/SVG/1.1/DTD/svg11.dtd">
<svg version="1.1" id="Layer_1" xmlns="http://www.w3.org/2000/svg" xmlns:xlink="http://www.w3.org/1999/xlink" x="0px" y="0px"
	 viewBox="0 0 32 32" enable-background="new 0 0 32 32" xml:space="preserve">
<title>Jsme Slušná firma</title>
<path fill="currentColor" d="M5,0h22c2.8,0,5,2.2,5,5v22c0,2.8-2.2,5-5,5H5c-2.8,0-5-2.2-5-5V5C0,2.2,2.2,0,5,0z"/>
<g>
	<path fill="#FFFFFF" d="M13.6,14c-0.1,0.2-0.3,0.3-0.4,0.5c-1.1,1.9-2.2,3.9-3.3,5.8c-0.4,0.7-0.9,1-1.4,0.8
		C8,20.8,8,20.2,8.4,19.5c0.9-1.7,1.9-3.4,2.8-5c0.1-0.2,0.2-0.4,0.3-0.5c-0.1,0-0.1-0.1-0.2-0.1C11.2,14,11,14.1,11,14.3
		c-1.1,2-2.2,4-3.3,6c-0.4,0.7-0.9,1-1.4,0.8c-0.4-0.2-0.5-0.9-0.1-1.6c1.1-2,2.2-3.9,3.3-5.9c0.1-0.2,0.2-0.4,0.3-0.5
		c-0.1,0-0.1-0.1-0.2-0.1c-0.1,0.2-0.2,0.3-0.3,0.5c-0.9,1.6-1.8,3.2-2.7,4.8c-0.1,0.1-0.1,0.2-0.2,0.4c-0.4,0.6-0.9,0.8-1.3,0.6
		c-0.4-0.2-0.5-0.8-0.2-1.4c1.5-2.8,3.1-5.5,4.6-8.3C9.5,9.2,9.6,9,9.7,8.9c-0.1,0-0.1-0.1-0.2-0.1C9.1,9.5,8.7,10.3,8.3,11
		c-0.5,0.9-1.4,1.2-2.3,0.7c0-0.1,0-0.1,0-0.2c0.8-1.4,1.5-2.9,2.4-4.3c0.9-1.4,2.4-2,4-2.3c1.5-0.3,2.9,0,4.2,0.8
		c1.4,0.8,2.8,1.6,4.1,2.3c0.2,0.1,0.3,0.2,0.6,0.4c-0.2,0.1-0.3,0.1-0.4,0.2c-1.5,0.2-2.6,1-3.4,2.3c-1.4,2.6-2.9,5.2-4.3,7.7
		c-0.1,0.2-0.2,0.3-0.3,0.5c-0.3,0.5-0.7,0.6-1.2,0.4c-0.4-0.2-0.6-0.7-0.3-1.2c0.6-1.2,1.3-2.3,1.9-3.5c0.1-0.2,0.3-0.5,0.4-0.7
		C13.7,14.1,13.6,14,13.6,14z"/>
	<path fill="#FFFFFF" d="M18.4,18c0.1-0.2,0.3-0.3,0.4-0.5c1.1-1.9,2.2-3.9,3.3-5.8c0.4-0.7,0.9-1,1.4-0.8c0.5,0.3,0.5,0.9,0.1,1.6
		c-0.9,1.7-1.9,3.4-2.8,5c-0.1,0.2-0.2,0.4-0.3,0.5c0.1,0,0.1,0.1,0.2,0.1c0.1-0.2,0.2-0.3,0.3-0.5c1.1-2,2.2-4,3.3-6
		c0.4-0.7,0.9-1,1.4-0.8c0.4,0.2,0.5,0.9,0.1,1.6c-1.1,2-2.2,3.9-3.3,5.9c-0.1,0.2-0.2,0.4-0.3,0.5c0.1,0,0.1,0.1,0.2,0.1
		c0.1-0.2,0.2-0.3,0.3-0.5c0.9-1.6,1.8-3.2,2.7-4.8c0.1-0.1,0.1-0.2,0.2-0.4c0.4-0.6,0.9-0.8,1.3-0.6c0.4,0.2,0.5,0.8,0.2,1.4
		c-1.5,2.8-3.1,5.5-4.6,8.3c-0.1,0.2-0.2,0.4-0.2,0.6c0.1,0,0.1,0.1,0.2,0.1c0.4-0.7,0.8-1.5,1.2-2.2c0.5-0.9,1.4-1.2,2.3-0.7
		c0,0.1,0,0.1,0,0.2c-0.8,1.4-1.5,2.9-2.4,4.3c-0.9,1.4-2.4,2-4,2.3c-1.5,0.3-2.9,0-4.2-0.8c-1.4-0.8-2.8-1.6-4.1-2.3
		c-0.2-0.1-0.3-0.2-0.6-0.4c0.2-0.1,0.3-0.1,0.4-0.2c1.5-0.2,2.6-1,3.4-2.3c1.4-2.6,2.9-5.2,4.3-7.7c0.1-0.2,0.2-0.3,0.3-0.5
		c0.3-0.5,0.7-0.6,1.2-0.4c0.4,0.2,0.6,0.7,0.3,1.2c-0.6,1.2-1.3,2.3-1.9,3.5c-0.1,0.2-0.3,0.5-0.4,0.7C18.3,17.9,18.4,18,18.4,18z"
		/>
</g>
</svg>
